<svg width="24" height="24" viewBox="0 0 24 24" fill="none" xmlns="http://www.w3.org/2000/svg">
<path d="M19.357 5.00365C19.4786 5.00962 19.6079 5.02333 19.7349 5.05345C20.039 5.12572 20.3224 5.26953 20.5611 5.47044C20.7606 5.63848 20.9111 5.84985 21.0308 6.01146C21.2739 6.33965 21.4913 6.63252 21.6461 6.87865C21.7751 7.08399 21.929 7.35888 21.9879 7.68529L22.0064 7.82884L22.0142 7.96947C22.0249 8.67107 21.6655 9.33165 21.0631 9.70287C20.73 9.90794 20.3607 9.95713 20.0845 9.97826C20.0531 9.98062 20.0201 9.9793 19.9869 9.98119C19.9963 10.1683 19.9996 10.3779 19.9996 10.5906V15.8035C19.9996 16.3458 19.9996 16.8129 19.9683 17.196C19.936 17.5909 19.8651 17.984 19.6724 18.362C19.3842 18.9276 18.9232 19.3856 18.3599 19.6726C17.9821 19.865 17.5895 19.9372 17.1949 19.9695C16.8119 20.0008 16.3444 19.9997 15.8023 19.9997H8.19589C7.65382 19.9997 7.18639 20.0008 6.80331 19.9695C6.40859 19.9372 6.01532 19.8652 5.6373 19.6726C5.0729 19.3849 4.61417 18.926 4.32676 18.362C4.13412 17.9838 4.06218 17.5902 4.02988 17.1951C3.99856 16.8114 3.99961 16.343 3.99961 15.7995V10.6003C3.99961 10.3842 4.00075 10.1712 4.01035 9.98216C3.97732 9.98029 3.94403 9.98065 3.91269 9.97826C3.63653 9.95707 3.26866 9.90758 2.93613 9.70287C2.29266 9.30628 1.92741 8.58062 1.9918 7.82884C2.02522 7.43923 2.2055 7.11356 2.35313 6.87865C2.50784 6.63253 2.72521 6.33972 2.96836 6.01146C3.08593 5.85272 3.23701 5.63902 3.43711 5.47044C3.6759 5.26934 3.95924 5.12577 4.26328 5.05345C4.51782 4.99299 4.77936 4.99973 4.97715 4.99974H19.0211L19.357 5.00365ZM9.9996 12.9997C9.44748 12.9998 8.99972 13.4476 8.9996 13.9997C8.9996 14.552 9.44741 14.9996 9.9996 14.9997H13.9996L14.1021 14.9949C14.6063 14.9435 14.9996 14.5174 14.9996 13.9997C14.9995 13.4822 14.6062 13.0559 14.1021 13.0046L13.9996 12.9997H9.9996Z" fill="#151414"/>
</svg>
