<svg width="24" height="24" viewBox="0 0 24 24" fill="none" xmlns="http://www.w3.org/2000/svg">
<path d="M19 14.9999C19.4044 14.9999 19.769 15.2435 19.9238 15.6171C20.0786 15.9908 19.993 16.421 19.707 16.707L15.707 20.707C15.3165 21.0975 14.6835 21.0975 14.293 20.707C13.9024 20.3164 13.9024 19.6834 14.293 19.2929L16.5859 16.9999H5C4.44772 16.9999 4 16.5522 4 15.9999C4 15.4476 4.44772 14.9999 5 14.9999H19ZM8.29297 3.29289C8.68349 2.90237 9.31651 2.90237 9.70703 3.29289C10.0976 3.68342 10.0976 4.31643 9.70703 4.70696L7.41406 6.99992H19C19.5523 6.99992 20 7.44764 20 7.99992C20 8.55221 19.5523 8.99992 19 8.99992H5C4.59558 8.99992 4.23098 8.75634 4.07617 8.38274C3.92139 8.00906 4.00697 7.57889 4.29297 7.29289L8.29297 3.29289Z" fill="#151414"/>
</svg>
