<svg width="91" height="78" viewBox="0 0 91 78" fill="none" xmlns="http://www.w3.org/2000/svg">
<path d="M18.25 67.375C16.5312 67.375 15.0604 66.7635 13.8375 65.5406C12.6146 64.3177 12.0021 62.8458 12 61.125V26.75C12 25.0312 12.6125 23.5604 13.8375 22.3375C15.0625 21.1146 16.5333 20.5021 18.25 20.5H30.75V14.25C30.75 12.5312 31.3625 11.0604 32.5875 9.8375C33.8125 8.61458 35.2833 8.00208 37 8H49.5C51.2188 8 52.6906 8.6125 53.9156 9.8375C55.1406 11.0625 55.7521 12.5333 55.75 14.25V20.5H68.25C69.9688 20.5 71.4406 21.1125 72.6656 22.3375C73.8906 23.5625 74.5021 25.0333 74.5 26.75V61.125C74.5 62.8438 73.8885 64.3156 72.6656 65.5406C71.4427 66.7656 69.9708 67.3771 68.25 67.375H18.25ZM37 20.5H49.5V14.25H37V20.5Z" fill="#D9480F"/>
<path d="M63.5 73.875C62.7437 73.875 62.0966 73.606 61.5585 73.0679C61.0204 72.5298 60.7509 71.8822 60.75 71.125V56C60.75 55.2438 61.0195 54.5966 61.5585 54.0585C62.0975 53.5204 62.7447 53.2509 63.5 53.25H69V50.5C69 49.7437 69.2695 49.0966 69.8085 48.5585C70.3475 48.0204 70.9947 47.7509 71.75 47.75H77.25C78.0063 47.75 78.6539 48.0195 79.1929 48.5585C79.7319 49.0975 80.0009 49.7447 80 50.5V53.25H85.5C86.2563 53.25 86.9039 53.5195 87.4429 54.0585C87.9819 54.5975 88.2509 55.2447 88.25 56V71.125C88.25 71.8813 87.981 72.5289 87.4429 73.0679C86.9048 73.6069 86.2572 73.8759 85.5 73.875H63.5ZM71.75 53.25H77.25V50.5H71.75V53.25Z" fill="#F66707"/>
</svg>
