<svg width="24" height="24" viewBox="0 0 24 24" fill="none" xmlns="http://www.w3.org/2000/svg">
<path d="M9.99999 18C9.99999 19.1046 10.8954 20 12 20C13.1046 20 14 19.1046 14 18H9.99999ZM5.99999 13.7227C5.99993 14.1661 5.82343 14.5906 5.51073 14.9033L5.12108 15.293C5.05792 15.3561 5.0262 15.3883 5.0039 15.4121C5.00301 15.4131 5.00175 15.4142 5.00097 15.415V15.418C4.99994 15.4508 4.99999 15.4959 4.99999 15.5859C4.99999 15.7899 5.0003 15.9014 5.00487 15.9824C5.00509 15.9862 5.00564 15.9899 5.00585 15.9932C5.00917 15.9934 5.01282 15.9949 5.01659 15.9951C5.09666 15.9997 5.20698 16 5.40917 16H18.5908C18.7931 16 18.904 15.9997 18.9844 15.9951C18.9875 15.9949 18.9904 15.9943 18.9932 15.9941C18.9934 15.9905 18.9949 15.9866 18.9951 15.9824C18.9997 15.9014 19 15.7898 19 15.5859C19 15.4965 18.9991 15.4514 18.998 15.4189C18.998 15.4173 18.9981 15.4155 18.998 15.4141L18.9971 15.4131C18.9744 15.389 18.9425 15.3565 18.8789 15.293L18.4892 14.9033C18.1761 14.5902 18.0001 14.1655 18 13.7227V10C18 6.68628 15.3137 3.99999 12 4C8.68629 4.00001 5.99999 6.6863 5.99999 10V13.7227ZM20 13.5859L20.293 13.8789C20.3886 13.9746 20.5189 14.1003 20.625 14.248C20.761 14.4374 20.8614 14.6471 20.9238 14.8672L20.9726 15.0908L20.9892 15.2236C21.0009 15.356 21 15.4822 21 15.5859C21 15.8908 21.0127 16.2894 20.8945 16.6396C20.6953 17.2299 20.2326 17.6955 19.6396 17.8955C19.3776 17.9839 19.0885 17.9982 18.833 18H16C16 20.2091 14.2091 22 12 22C9.79085 22 7.99999 20.2091 7.99999 18H5.16698C4.91172 17.9982 4.62324 17.9838 4.36132 17.8955C3.76996 17.696 3.30422 17.2316 3.10448 16.6396C2.98636 16.2894 2.99999 15.8908 2.99999 15.5859C2.99999 15.4499 2.99695 15.2703 3.02636 15.0908C3.07613 14.7875 3.19496 14.4988 3.37499 14.248C3.48089 14.1006 3.60967 13.9763 3.70702 13.8789L3.99999 13.5859V10C3.99999 5.58173 7.58173 2.00001 12 2C16.4183 1.99999 20 5.58172 20 10V13.5859Z" fill="#151414"/>
</svg>
