<svg width="24" height="24" viewBox="0 0 24 24" fill="none" xmlns="http://www.w3.org/2000/svg">
<path d="M5 18C5 18.5523 5.44772 19 6 19C6.55228 19 7 18.5523 7 18H5ZM17 18C17 18.5523 17.4477 19 18 19C18.5522 19 18.9999 18.5523 19 18H17ZM5 16H19V12H5V16ZM8.74609 5.99998C7.91685 5.99998 7.75184 6.01456 7.62695 6.05955C7.48196 6.11182 7.35091 6.19622 7.24414 6.3076C7.15225 6.40351 7.07199 6.54918 6.73535 7.30662L5.53809 9.99998H18.4609L17.2637 7.30467C16.9274 6.54811 16.8475 6.40328 16.7559 6.3076C16.6487 6.19579 16.5177 6.11169 16.373 6.05955C16.2482 6.01457 16.0829 5.99999 15.2539 5.99998H8.74609ZM21 18C20.9999 19.6567 19.6569 21 18 21C16.3431 21 15 19.6568 15 18H9C9 19.6568 7.65685 21 6 21C4.34315 21 3 19.6568 3 18V12C2.44772 12 2 11.5523 2 11C2 10.4477 2.44772 9.99998 3 9.99998H3.34961C3.3535 9.99125 3.3574 9.98246 3.36133 9.97362L4.9082 6.49412C5.18288 5.87611 5.40869 5.33317 5.7998 4.92479C6.12011 4.59047 6.51347 4.3347 6.94922 4.17772C7.48151 3.98597 8.06986 3.99998 8.74609 3.99998H15.2539C15.9299 3.99998 16.5186 3.986 17.0508 4.17772C17.487 4.33485 17.8792 4.59081 18.1992 4.92479C18.5904 5.33314 18.8166 5.87608 19.0908 6.49315L20.6436 9.98631C20.6456 9.99085 20.6474 9.99546 20.6494 9.99998H21C21.5523 9.99998 22 10.4477 22 11C22 11.5523 21.5523 12 21 12V18Z" fill="#151414"/>
</svg>
