<svg width="24" height="24" viewBox="0 0 24 24" fill="none" xmlns="http://www.w3.org/2000/svg">
<path d="M20 12C20 7.58172 16.4183 4 12 4C7.58172 4 4 7.58172 4 12C4 13.4551 4.38759 14.8166 5.06445 15.9902L5.06738 15.9951C5.09917 16.0502 5.17671 16.175 5.23828 16.3242L5.29199 16.4805L5.32227 16.6104C5.34563 16.738 5.35007 16.8611 5.3418 16.9824C5.32677 17.2022 5.25199 17.4071 5.22363 17.4922L4.58008 19.418L6.50781 18.7764C6.58624 18.7502 6.7964 18.6724 7.01758 18.6572L7.14648 18.6533C7.23131 18.6547 7.3142 18.664 7.39648 18.6797L7.51953 18.708L7.67578 18.7617C7.82505 18.8233 7.94925 18.9015 8.00488 18.9336L8.00977 18.9355C9.18333 19.6123 10.545 20 12 20C16.4182 19.9998 20 16.4181 20 12ZM8.00195 11C8.27122 11 8.52961 11.1082 8.71777 11.3008C8.90593 11.4934 9.00824 11.7543 9.00195 12.0234V12.0254C8.99575 12.2906 8.88428 12.5425 8.69238 12.7256C8.50051 12.9086 8.24358 13.0082 7.97852 13.002H7.97656C7.43375 12.989 7 12.5449 7 12.002V12C7 11.4477 7.44772 11 8 11H8.00195ZM12.002 11C12.2712 11 12.5296 11.1082 12.7178 11.3008C12.9059 11.4934 13.0082 11.7543 13.002 12.0234V12.0254C12.9958 12.2906 12.8843 12.5425 12.6924 12.7256C12.5005 12.9086 12.2436 13.0082 11.9785 13.002H11.9766C11.4338 12.989 11 12.5449 11 12.002V12C11 11.4477 11.4477 11 12 11H12.002ZM16.002 11C16.2712 11 16.5296 11.1082 16.7178 11.3008C16.9059 11.4934 17.0082 11.7543 17.002 12.0234V12.0254C16.9958 12.2906 16.8843 12.5425 16.6924 12.7256C16.5005 12.9086 16.2436 13.0082 15.9785 13.002H15.9766C15.4338 12.989 15 12.5449 15 12.002V12C15 11.4477 15.4477 11 16 11H16.002ZM22 12C22 17.5228 17.5226 21.9998 12 22C10.2073 22 8.52234 21.5263 7.06543 20.6982L4.8457 21.4375C4.83968 21.4396 4.83419 21.4433 4.82812 21.4453C4.60485 21.5197 4.37137 21.5984 4.1748 21.6445C3.99244 21.6873 3.65182 21.7531 3.28711 21.623C2.8641 21.4722 2.52954 21.1381 2.37793 20.7129C2.24777 20.3477 2.3136 20.0067 2.35645 19.8242C2.40187 19.6309 2.47921 19.4021 2.55273 19.1816H2.55176L2.55273 19.1787L2.55664 19.166L3.50586 19.4824L2.55762 19.166L3.30078 16.9336C2.47304 15.4769 2 13.7923 2 12C2 6.47715 6.47715 2 12 2C17.5228 2 22 6.47715 22 12Z" fill="#151414"/>
</svg>
