<svg width="24" height="24" viewBox="0 0 24 24" fill="none" xmlns="http://www.w3.org/2000/svg">
<path fill-rule="evenodd" clip-rule="evenodd" d="M12 4C16.4183 4 20 7.58172 20 12C20 16.4183 16.4183 20 12 20C7.58172 20 4 16.4183 4 12C4 7.58172 7.58172 4 12 4ZM15.373 8.62598C14.9825 8.23586 14.3494 8.23559 13.959 8.62598L11.999 10.585L10.04 8.62598C9.64949 8.23576 9.0164 8.23555 8.62598 8.62598C8.23561 9.0164 8.23578 9.64951 8.62598 10.04L10.585 11.999L8.62598 13.959C8.23565 14.3494 8.23588 14.9825 8.62598 15.373C9.01648 15.7636 9.64951 15.7635 10.04 15.373L11.999 13.4131L13.959 15.373C14.3495 15.7636 14.9825 15.7635 15.373 15.373C15.7636 14.9825 15.7636 14.3495 15.373 13.959L13.4131 11.999L15.373 10.04C15.7636 9.64951 15.7636 9.0165 15.373 8.62598Z" fill="#AFACAC"/>
</svg>
