<svg width="24" height="24" viewBox="0 0 24 24" fill="none" xmlns="http://www.w3.org/2000/svg">
<path d="M20.293 2.29289C20.6835 1.90238 21.3166 1.90239 21.7071 2.29289C22.0976 2.68342 22.0976 3.31643 21.7071 3.70696L13.4141 11.9999L21.7071 20.2929L21.7754 20.3691C22.0957 20.7618 22.0732 21.3409 21.7071 21.707C21.341 22.0731 20.762 22.0956 20.3692 21.7753L20.293 21.707L12 13.414L3.70708 21.707C3.31655 22.0975 2.68354 22.0975 2.29302 21.707C1.90252 21.3164 1.9025 20.6834 2.29302 20.2929L10.586 11.9999L2.29302 3.70696C1.90249 3.31643 1.90249 2.68342 2.29302 2.29289C2.68354 1.90237 3.31655 1.90237 3.70708 2.29289L12 10.5859L20.293 2.29289Z" fill="#151414"/>
</svg>
