<svg width="24" height="24" viewBox="0 0 24 24" fill="none" xmlns="http://www.w3.org/2000/svg">
<path d="M15.3818 3.51174C15.7332 3.39758 16.1085 3.38322 16.4658 3.46877L16.6182 3.51174L16.8232 3.59377C17.0156 3.68514 17.173 3.80215 17.3037 3.9131C17.4693 4.05364 17.6504 4.2364 17.8359 4.42189L19.5762 6.16115C19.7625 6.34745 19.9451 6.52943 20.0859 6.69533C20.2343 6.87012 20.3941 7.09219 20.4883 7.38185C20.6188 7.78356 20.6187 8.2166 20.4883 8.61818C20.3942 8.90777 20.2343 9.12997 20.0859 9.30471C19.9452 9.47042 19.7621 9.65195 19.5762 9.83791L8.70703 20.707C8.5195 20.8946 8.26521 21 8 21H4C3.73478 21 3.48051 20.8946 3.29297 20.707C3.10547 20.5195 3 20.2652 3 20V16L3.00488 15.9014C3.0276 15.6724 3.12885 15.4571 3.29297 15.293L14.1611 4.42482L14.166 4.41896L14.168 4.41799C14.3521 4.23386 14.532 4.05354 14.6963 3.91408C14.8709 3.76589 15.0923 3.60582 15.3818 3.51174ZM5 16.4141V19H7.58594L14.5859 12L12 9.41408L5 16.4141ZM15.9902 5.43849C15.9013 5.51398 15.7862 5.62793 15.5771 5.83693L15.5752 5.83791L13.4141 8.00002L16 10.586L18.1709 8.41506C18.3749 8.21103 18.487 8.09759 18.5615 8.00978C18.5642 8.00661 18.566 8.00291 18.5684 8.00002C18.566 7.99713 18.5642 7.99342 18.5615 7.99025C18.4858 7.90105 18.3708 7.78586 18.1611 7.57619L16.4219 5.83596C16.2133 5.62739 16.0985 5.51383 16.0098 5.43849C16.0065 5.43576 16.0029 5.43313 16 5.43068C15.997 5.43318 15.9935 5.43569 15.9902 5.43849Z" fill="#151414"/>
</svg>
