<svg width="24" height="24" viewBox="0 0 24 24" fill="none" xmlns="http://www.w3.org/2000/svg">
<path d="M19.3569 5.00366C19.4785 5.00963 19.6078 5.02334 19.7349 5.05347C20.0389 5.12573 20.3223 5.26953 20.561 5.47046C20.7606 5.63851 20.9111 5.84985 21.0308 6.01147C21.2739 6.33968 21.4912 6.63252 21.646 6.87866C21.7751 7.08401 21.9289 7.35887 21.9878 7.6853L22.0063 7.82886L22.0142 7.96948C22.0248 8.67112 21.6654 9.33167 21.063 9.70288C20.7299 9.90798 20.3607 9.95715 20.0845 9.97827C20.053 9.98064 20.02 9.97931 19.9868 9.9812C19.9962 10.1683 19.9995 10.3779 19.9995 10.5906V15.8035C19.9995 16.3458 19.9996 16.8129 19.9683 17.196C19.936 17.5909 19.865 17.984 19.6724 18.3621C19.3842 18.9276 18.9231 19.3856 18.3599 19.6726C17.982 19.865 17.5895 19.9372 17.1948 19.9695C16.8118 20.0008 16.3444 19.9998 15.8022 19.9998H8.1958C7.6537 19.9998 7.18631 20.0008 6.80322 19.9695C6.40848 19.9372 6.01524 19.8652 5.63721 19.6726C5.07279 19.3849 4.61407 18.926 4.32666 18.3621C4.13402 17.9838 4.06208 17.5902 4.02979 17.1951C3.99846 16.8114 3.99951 16.343 3.99951 15.7996V10.6003C3.99951 10.3842 4.00065 10.1712 4.01025 9.98218C3.97719 9.98031 3.94395 9.98067 3.9126 9.97827C3.63642 9.95708 3.26858 9.90763 2.93604 9.70288C2.29256 9.30629 1.9273 8.58064 1.9917 7.82886C2.02512 7.43924 2.2054 7.11358 2.35303 6.87866C2.50774 6.63255 2.72511 6.33974 2.96826 6.01147C3.08584 5.85274 3.2369 5.63904 3.43701 5.47046C3.67581 5.26935 3.95914 5.12578 4.26318 5.05347C4.51774 4.99299 4.77925 4.99975 4.97705 4.99976H19.021L19.3569 5.00366ZM11.9995 10.9998C11.4475 11 10.9996 11.4477 10.9995 11.9998V12.9998H9.99951C9.44752 13 8.99964 13.4477 8.99951 13.9998C8.99951 14.5519 9.44744 14.9995 9.99951 14.9998H10.9995V15.9998L11.0044 16.1013C11.0554 16.6056 11.4818 16.9995 11.9995 16.9998C12.5174 16.9998 12.9436 16.6058 12.9946 16.1013L12.9995 15.9998V14.9998H13.9995L14.1011 14.9949C14.6056 14.9439 14.9995 14.5177 14.9995 13.9998C14.9994 13.4819 14.6055 13.0556 14.1011 13.0046L13.9995 12.9998H12.9995V11.9998C12.9994 11.4476 12.5517 10.9998 11.9995 10.9998Z" fill="#151414"/>
</svg>
