<svg width="24" height="24" viewBox="0 0 24 24" fill="none" xmlns="http://www.w3.org/2000/svg">
<path d="M18 10.5908C18 10.2977 17.9986 10.1376 17.9892 10.0224C17.9889 10.0188 17.9876 10.0151 17.9873 10.0117C17.9836 10.0114 17.9797 10.0111 17.9756 10.0107C17.8592 10.0012 17.6969 9.99999 17.4004 9.99999H6.60057C6.30408 9.99999 6.14122 10.0012 6.0244 10.0107C6.01958 10.0111 6.01502 10.0113 6.01073 10.0117C6.01036 10.0157 6.01012 10.0199 6.00975 10.0244C6.00022 10.1411 5.99999 10.3041 5.99999 10.6006V15.7998C5.99999 16.3763 6.00028 16.7489 6.02342 17.0322C6.04559 17.3035 6.0832 17.4046 6.10839 17.4541C6.20439 17.6425 6.35798 17.7958 6.54589 17.8916C6.59526 17.9167 6.69626 17.9544 6.96678 17.9765C7.24963 17.9996 7.62119 18 8.19628 18H15.8027C16.3781 18 16.7495 17.9997 17.0322 17.9765C17.3031 17.9544 17.4038 17.9167 17.4531 17.8916C17.6423 17.7951 17.7953 17.641 17.8906 17.4541C17.9157 17.4048 17.9534 17.3042 17.9756 17.0332C17.9987 16.7505 18 16.3791 18 15.8037V10.5908ZM4.73143 7.00194H4.72753L4.7246 7.00585C4.69414 7.04334 4.65422 7.09675 4.57616 7.20213C4.31334 7.55694 4.15111 7.7775 4.04686 7.94335C4.03908 7.95573 4.03271 7.96794 4.02635 7.9785C4.03856 7.97967 4.05188 7.98325 4.06639 7.98436C4.26135 7.99927 4.53394 7.99999 4.9746 7.99999H19.0234C19.4643 7.99999 19.7373 7.9993 19.9326 7.98436C19.9472 7.98325 19.9604 7.97967 19.9726 7.9785C19.9663 7.96801 19.9608 7.95563 19.9531 7.94335C19.8487 7.77732 19.6867 7.55709 19.4238 7.20213C19.3461 7.09725 19.3065 7.04378 19.2764 7.00682C19.2749 7.00509 19.2724 7.00194 19.2724 7.00194H19.2676L19.0215 6.99999H4.97753L4.73143 7.00194ZM20 15.8037C20 16.3461 20.0001 16.8131 19.9687 17.1963C19.9365 17.5911 19.8655 17.9842 19.6728 18.3623C19.3846 18.9278 18.9236 19.3858 18.3603 19.6728C17.9824 19.8654 17.59 19.9374 17.1953 19.9697C16.8122 20.001 16.3451 20 15.8027 20H8.19628C7.65397 20 7.18689 20.001 6.8037 19.9697C6.40879 19.9374 6.01587 19.8655 5.63768 19.6728C5.07306 19.3851 4.61463 18.9264 4.32714 18.3623C4.13436 17.9839 4.06256 17.5906 4.03026 17.1953C3.99891 16.8116 3.99999 16.3433 3.99999 15.7998V10.6006C3.99999 10.3843 4.00113 10.1715 4.01073 9.98241C3.97751 9.98051 3.94457 9.98091 3.91307 9.9785C3.63684 9.95733 3.26924 9.90797 2.93651 9.70311C2.29276 9.30658 1.92776 8.58104 1.99217 7.82909C2.02556 7.43937 2.20585 7.11385 2.3535 6.87889C2.50823 6.63276 2.72556 6.34 2.96874 6.0117C3.08634 5.85292 3.2373 5.63929 3.43749 5.47069C3.67639 5.26949 3.95946 5.12599 4.26366 5.0537C4.51841 4.99318 4.77967 4.99999 4.97753 4.99999H19.0215L19.3574 5.00389C19.4792 5.00987 19.6081 5.02349 19.7353 5.0537C20.0396 5.126 20.3227 5.26959 20.5615 5.47069C20.7612 5.63886 20.9115 5.85004 21.0312 6.0117C21.2745 6.34007 21.4917 6.63268 21.6465 6.87889C21.7756 7.0843 21.9294 7.35897 21.9883 7.68553L22.0068 7.82909L22.0146 7.96971C22.0253 8.67134 21.6659 9.3319 21.0635 9.70311C20.7303 9.90833 20.3612 9.95737 20.0849 9.9785C20.0533 9.98092 20.0206 9.97953 19.9873 9.98143C19.9967 10.1686 20 10.3781 20 10.5908V15.8037Z" fill="#151414"/>
<path d="M12 11C12.5523 11 13 11.4477 13 12V13H14L14.1016 13.0049C14.606 13.0559 15 13.4821 15 14C15 14.5179 14.606 14.9441 14.1016 14.9951L14 15H13V16L12.9951 16.1016C12.9441 16.606 12.5179 17 12 17C11.4821 17 11.0559 16.606 11.0049 16.1016L11 16V15H10C9.44772 15 9 14.5523 9 14C9 13.4477 9.44772 13 10 13H11V12C11 11.4477 11.4477 11 12 11Z" fill="#151414"/>
</svg>
