<svg width="24" height="24" viewBox="0 0 24 24" fill="none" xmlns="http://www.w3.org/2000/svg">
<path d="M11 15V14C11.0001 13.4477 11.4478 13 12 13C12.5533 13 13.0956 12.8467 13.5674 12.5576C14.0386 12.2688 14.4214 11.8549 14.6729 11.3613C14.9241 10.8679 15.0337 10.3147 14.9903 9.76362C14.9467 9.21247 14.7521 8.68388 14.4268 8.23628C14.1012 7.78833 13.6583 7.43992 13.1475 7.22847C12.6363 7.01689 12.0757 6.95037 11.5293 7.03706C10.983 7.12383 10.4713 7.35939 10.0508 7.7187C9.63016 8.07819 9.31728 8.5472 9.14651 9.07319C8.97603 9.59851 8.41205 9.88625 7.88674 9.71577C7.36144 9.54529 7.07368 8.98131 7.24416 8.45601C7.52888 7.57882 8.05113 6.79814 8.75197 6.19917C9.45307 5.6 10.3061 5.20597 11.2168 5.06147C12.1275 4.91708 13.0612 5.02718 13.9131 5.37983C14.7655 5.73271 15.5021 6.31501 16.044 7.0605C16.586 7.80629 16.9119 8.68782 16.9844 9.60737C17.0568 10.527 16.8734 11.4483 16.4551 12.2695C16.0368 13.0906 15.3992 13.7814 14.6123 14.2636C14.1139 14.569 13.5678 14.7825 13 14.8984V15C12.9999 15.5522 12.5522 16 12 16C11.4478 16 11.0001 15.5522 11 15ZM13.0498 19.0996C13.0498 19.6511 12.6033 20.0985 12.0518 20.0996L11.9522 20.1005C11.6866 20.1011 11.4321 19.9952 11.2442 19.8076C11.0563 19.6201 10.9503 19.3659 10.9502 19.1005V19C10.9502 18.4477 11.3979 18 11.9502 18H12.0498C12.6021 18 13.0498 18.4477 13.0498 19V19.0996Z" fill="#151414"/>
</svg>
