<svg width="24" height="24" viewBox="0 0 24 24" fill="none" xmlns="http://www.w3.org/2000/svg">
<path d="M3.29248 3.29304C3.68294 2.90258 4.316 2.90271 4.70654 3.29304L20.7065 19.293L20.7759 19.3692C21.096 19.762 21.0726 20.3411 20.7065 20.7071C20.316 21.0974 19.6829 21.0976 19.2925 20.7071L16.4751 17.8897C15.1405 18.5392 13.6249 19.0001 11.9995 19.0001C8.04353 18.9999 4.68928 16.2857 2.88135 14.4884C2.43327 14.0429 2.01682 13.6512 1.78174 12.9307C1.68352 12.6296 1.65284 12.2851 1.65283 12.0001C1.65283 11.715 1.68345 11.3706 1.78174 11.0694C2.01688 10.3488 2.43442 9.95698 2.8833 9.51082C3.62263 8.77596 4.59306 7.91897 5.73486 7.14949L3.29248 4.70711C2.90221 4.31663 2.90221 3.68352 3.29248 3.29304ZM7.17725 8.59187C6.03315 9.31815 5.04633 10.1805 4.29346 10.9288C3.80143 11.4178 3.74696 11.4939 3.68311 11.6895C3.68311 11.6895 3.68118 11.699 3.67725 11.7178C3.67341 11.7363 3.6683 11.7603 3.66455 11.7901C3.65693 11.8507 3.65283 11.9232 3.65283 12.0001C3.65284 12.0769 3.65693 12.1494 3.66455 12.21C3.6683 12.2398 3.67341 12.2639 3.67725 12.2823C3.68064 12.2986 3.68247 12.3075 3.68311 12.3096C3.74699 12.5055 3.80055 12.5813 4.2915 13.0694C6.04231 14.81 8.8945 16.9999 11.9995 17.0001C13.0173 17.0001 14.0129 16.7622 14.9614 16.376L13.2915 14.7061C12.8999 14.8933 12.4618 15.0001 11.9995 15.0001C10.3428 14.9999 8.99951 13.6568 8.99951 12.0001C8.99951 11.5377 9.10735 11.1004 9.29443 10.7091L7.17725 8.59187ZM11.9995 5.00007C15.9556 5.00007 19.3106 7.71436 21.1187 9.51179C21.5668 9.95727 21.9833 10.35 22.2183 11.0704C22.3163 11.3713 22.3471 11.7151 22.3472 12.0001C22.3472 12.2851 22.3166 12.6294 22.2183 12.9307C21.9834 13.6504 21.5665 14.0422 21.1196 14.4864C21.1187 14.4874 21.1177 14.4884 21.1167 14.4893C20.8301 14.7742 20.5105 15.0772 20.1606 15.3848L20.0806 15.4483C19.6681 15.743 19.0905 15.6829 18.7485 15.294C18.384 14.8794 18.4249 14.2476 18.8394 13.8829L19.2935 13.4698C19.4381 13.3341 19.5761 13.201 19.7065 13.0714C19.7075 13.0704 19.7085 13.0694 19.7095 13.0684C20.1998 12.5811 20.2533 12.5054 20.3169 12.3106C20.3169 12.3106 20.3198 12.3019 20.3237 12.2833C20.3276 12.2649 20.3317 12.2399 20.3354 12.21C20.343 12.1496 20.3472 12.0776 20.3472 12.001C20.3472 11.9244 20.3431 11.8517 20.3354 11.7911C20.3317 11.7612 20.3276 11.7363 20.3237 11.7178C20.3219 11.709 20.3201 11.7022 20.3188 11.6973C20.318 11.6939 20.3172 11.6914 20.3169 11.6905C20.253 11.4947 20.1988 11.4182 19.7085 10.9307C17.9576 9.19012 15.1047 7.00007 11.9995 7.00007C11.7065 7.00009 11.4151 7.01979 11.1265 7.05671C10.5788 7.12659 10.0784 6.73915 10.0083 6.19148C9.93824 5.64379 10.3249 5.14261 10.8726 5.07234C11.2415 5.02515 11.6178 5.00009 11.9995 5.00007Z" fill="#151414"/>
</svg>
