<svg width="24" height="24" viewBox="0 0 24 24" fill="none" xmlns="http://www.w3.org/2000/svg">
<path d="M19 11.4527C19 10.8675 18.9918 10.7505 18.9668 10.6548C18.9379 10.5444 18.8909 10.4402 18.8271 10.3462C18.7716 10.2644 18.689 10.1814 18.249 9.79644L13.4492 5.59625C13.0644 5.25955 12.8174 5.04454 12.6162 4.8941C12.4255 4.75154 12.3355 4.71403 12.2842 4.69879C12.0991 4.64405 11.9009 4.64405 11.7158 4.69879C11.6647 4.71394 11.5753 4.75165 11.3848 4.8941C11.1838 5.04434 10.937 5.25902 10.5527 5.59527L5.75098 9.79644C5.31107 10.1814 5.22842 10.2644 5.17285 10.3462C5.10795 10.4419 5.06058 10.5463 5.03223 10.6548C5.00735 10.7501 5 10.8662 5 11.4527V17.0005C5 17.4797 5.00047 17.7891 5.0166 18.0259C5.03212 18.2534 5.05892 18.3406 5.07617 18.3824C5.17794 18.6281 5.37283 18.8232 5.61719 18.9244C5.65884 18.9416 5.74582 18.9684 5.97363 18.9839C6.2106 19.0001 6.52047 19.0005 7 19.0005C7.47946 19.0005 7.78928 19.0001 8.02637 18.9839C8.25434 18.9684 8.34124 18.9416 8.38281 18.9244C8.62716 18.8232 8.82205 18.6281 8.92383 18.3824C8.9411 18.3405 8.96787 18.2532 8.9834 18.0259C8.99956 17.7891 9 17.4796 9 17.0005V16.0005C9 14.3437 10.3431 13.0005 12 13.0005C13.6569 13.0005 15 14.3437 15 16.0005V17.0005C15 17.4796 15.0005 17.7891 15.0166 18.0259C15.0321 18.2533 15.0589 18.3406 15.0762 18.3824C15.1779 18.628 15.3727 18.8231 15.6172 18.9244C15.6588 18.9416 15.7458 18.9684 15.9736 18.9839C16.2106 19.0001 16.5205 19.0005 17 19.0005C17.4795 19.0005 17.7893 19.0001 18.0264 18.9839C18.2543 18.9684 18.3412 18.9416 18.3828 18.9244C18.6271 18.8232 18.822 18.6282 18.9238 18.3824C18.9411 18.3406 18.9679 18.2533 18.9834 18.0259C18.9996 17.7891 19 17.4797 19 17.0005V11.4527ZM21 17.0005C21 17.4527 21.0004 17.8419 20.9785 18.1627C20.956 18.4925 20.9064 18.8222 20.7715 19.148C20.4673 19.8823 19.8842 20.4672 19.1484 20.772C18.8224 20.9071 18.492 20.9566 18.1621 20.9791C17.8413 21.0009 17.4521 21.0005 17 21.0005C16.5477 21.0005 16.1578 21.001 15.8369 20.9791C15.5072 20.9565 15.1773 20.907 14.8516 20.772C14.116 20.4673 13.5327 19.8825 13.2285 19.148C13.0936 18.8222 13.044 18.4924 13.0215 18.1627C12.9996 17.8419 13 17.4526 13 17.0005V16.0005C13 15.4483 12.5523 15.0005 12 15.0005C11.4477 15.0005 11 15.4483 11 16.0005V17.0005C11 17.4527 11.0004 17.8419 10.9785 18.1627C10.956 18.4925 10.9064 18.8222 10.7715 19.148C10.4673 19.8824 9.88413 20.4672 9.14844 20.772C8.82244 20.9071 8.49197 20.9566 8.16211 20.9791C7.84126 21.0009 7.45205 21.0005 7 21.0005C6.54774 21.0005 6.15776 21.001 5.83691 20.9791C5.50723 20.9565 5.17734 20.907 4.85156 20.772C4.11589 20.4673 3.5327 19.8824 3.22852 19.148C3.09355 18.8222 3.044 18.4924 3.02148 18.1627C2.9996 17.8419 3 17.4527 3 17.0005V11.1021C3.00278 10.762 3.01885 10.4506 3.09766 10.149C3.18446 9.81691 3.32769 9.50437 3.51856 9.2232C3.75166 8.87981 4.07035 8.61025 4.43457 8.29156L9.23633 4.09039C9.59741 3.77444 9.90981 3.49947 10.1865 3.29254C10.4733 3.07814 10.7799 2.88986 11.1484 2.78082C11.7036 2.61664 12.2954 2.61672 12.8506 2.78082C13.2193 2.88986 13.5264 3.07793 13.8135 3.29254C14.0906 3.49969 14.4039 3.77483 14.7656 4.09136L19.5664 8.29156C19.9303 8.60998 20.2494 8.8799 20.4824 9.2232C20.6743 9.50596 20.8161 9.81891 20.9023 10.149C21.0073 10.5506 21 10.9692 21 11.4527V17.0005Z" fill="#151414"/>
</svg>
