<svg width="25" height="24" viewBox="0 0 25 24" fill="none" xmlns="http://www.w3.org/2000/svg">
<path d="M21.5 17.0264V17.0005V11.4527C21.5 10.9692 21.5073 10.5506 21.4023 10.149C21.3161 9.81891 21.1743 9.50596 20.9824 9.2232C20.7494 8.8799 20.4303 8.60998 20.0664 8.29156L15.2656 4.09136L15.2369 4.06619C14.8872 3.76024 14.5832 3.49418 14.3135 3.29254C14.0264 3.07793 13.7193 2.88986 13.3506 2.78082C12.7954 2.61672 12.2036 2.61664 11.6484 2.78082C11.2799 2.88986 10.9733 3.07814 10.6865 3.29254C10.4098 3.49947 10.0974 3.77444 9.73633 4.09039L4.93457 8.29156C4.57035 8.61025 4.25166 8.87981 4.01856 9.2232C3.82769 9.50437 3.68446 9.81691 3.59766 10.149C3.51885 10.4506 3.50278 10.762 3.5 11.1021V17.0005V17.0246C3.49999 17.4665 3.49999 17.8476 3.52148 18.1627C3.544 18.4924 3.59355 18.8222 3.72852 19.148C4.0327 19.8824 4.61589 20.4673 5.35156 20.772C5.67734 20.907 6.00723 20.9565 6.33691 20.9791C6.65198 21.0006 7.03371 21.0006 7.47561 21.0005H7.5H7.52297C7.96525 21.0006 8.34671 21.0006 8.66211 20.9791C8.99197 20.9566 9.32244 20.9071 9.64844 20.772C10.3841 20.4672 10.9673 19.8824 11.2715 19.148C11.4064 18.8222 11.456 18.4925 11.4785 18.1627C11.5 17.848 11.5 17.4675 11.5 17.0263V17.0005V16.0005C11.5 15.4483 11.9477 15.0005 12.5 15.0005C13.0523 15.0005 13.5 15.4483 13.5 16.0005V17.0005V17.0245C13.5 17.4664 13.5 17.8476 13.5215 18.1627C13.544 18.4924 13.5936 18.8222 13.7285 19.148C14.0327 19.8825 14.616 20.4673 15.3516 20.772C15.6773 20.907 16.0072 20.9565 16.3369 20.9791C16.652 21.0006 17.0337 21.0006 17.4756 21.0005H17.5H17.523C17.9652 21.0006 18.3467 21.0006 18.6621 20.9791C18.992 20.9566 19.3224 20.9071 19.6484 20.772C20.3842 20.4672 20.9673 19.8823 21.2715 19.148C21.4064 18.8222 21.456 18.4925 21.4785 18.1627C21.5 17.848 21.5 17.4676 21.5 17.0264Z" fill="#151414"/>
</svg>
