<svg width="24" height="24" viewBox="0 0 24 24" fill="none" xmlns="http://www.w3.org/2000/svg">
<path d="M20 6.19727C20 5.62182 19.9997 5.24974 19.9766 4.9668C19.9544 4.69595 19.9167 4.59521 19.8916 4.5459C19.7961 4.35841 19.6427 4.20555 19.4541 4.10938C19.4046 4.08417 19.3037 4.04661 19.0322 4.02442C18.8906 4.01285 18.7268 4.00602 18.5264 4.00293L17.7998 4H6.2002C5.62366 4 5.25124 4.00127 4.96778 4.02442C4.69598 4.04662 4.59528 4.08422 4.5459 4.10938C4.35779 4.20524 4.20524 4.35779 4.10938 4.5459C4.08422 4.59528 4.04662 4.69598 4.02442 4.96778C4.00127 5.25124 4 5.62366 4 6.2002V15.2969L7.00879 11.7871L7.00977 11.7852C7.20962 11.552 7.4008 11.3273 7.57618 11.1553C7.75815 10.9768 7.99743 10.7789 8.32129 10.6641C8.70792 10.527 9.12534 10.5126 9.51758 10.6201L9.6836 10.6738L9.80079 10.7217C10.0642 10.8427 10.2646 11.0172 10.4219 11.1758C10.595 11.3503 10.7835 11.5771 10.9805 11.8135L13.6514 15.0195C13.8552 15.2642 13.9691 15.3996 14.0586 15.4902C14.0615 15.4931 14.0647 15.4954 14.0674 15.4981C14.0711 15.495 14.0759 15.4928 14.0801 15.4893C14.1782 15.4065 14.3044 15.2806 14.5313 15.0537L15.0283 14.5566C15.2348 14.3502 15.4338 14.1502 15.6143 13.9981C15.8027 13.8392 16.0452 13.6667 16.3623 13.5752C16.7445 13.4649 17.1484 13.472 17.5225 13.5908L17.6807 13.6494L17.791 13.6992C18.0398 13.8237 18.2282 13.995 18.377 14.1514C18.5396 14.3224 18.7151 14.5425 18.8975 14.7705L20 16.1484V6.19727ZM8.97657 12.584C8.87759 12.6811 8.75104 12.8271 8.52832 13.0869L8.52735 13.0879L4.00293 18.3652C4.00548 18.6719 4.01103 18.8971 4.02832 19.0791C4.05076 19.3151 4.08585 19.4069 4.10938 19.4531C4.2058 19.6424 4.35882 19.7963 4.5459 19.8916C4.59521 19.9167 4.69595 19.9544 4.9668 19.9766C5.24974 19.9997 5.62182 20 6.19727 20H17.8037C18.3791 20 18.7505 19.9997 19.0332 19.9766C19.3042 19.9544 19.4048 19.9167 19.4541 19.8916C19.6417 19.796 19.7955 19.6418 19.8916 19.4531C19.9073 19.4222 19.9254 19.3729 19.9434 19.2793L17.3359 16.0205C17.1321 15.7657 17.0177 15.6239 16.9277 15.5293C16.9236 15.5249 16.9188 15.5214 16.915 15.5176C16.9114 15.5206 16.9074 15.5239 16.9033 15.5273C16.8032 15.6117 16.6741 15.7399 16.4434 15.9707L15.9463 16.4678C15.7436 16.6704 15.5479 16.8675 15.3701 17.0176C15.1842 17.1745 14.945 17.3444 14.6328 17.4365C14.2075 17.562 13.7488 17.5449 13.3301 17.3789C13.028 17.2591 12.8059 17.0678 12.6357 16.8955C12.473 16.7307 12.2971 16.518 12.1152 16.2998L9.44336 13.0947C9.22362 12.831 9.09974 12.6826 9.00196 12.584C8.99768 12.5797 8.99311 12.5761 8.98926 12.5723C8.98547 12.5759 8.98076 12.5799 8.97657 12.584ZM13 8C13 6.89543 13.8954 6 15 6C16.1046 6 17 6.89543 17 8C17 9.10457 16.1046 10 15 10C13.8954 10 13 9.10457 13 8ZM22 17.8027C22 18.1899 21.997 18.5363 21.9863 18.8379C22.0101 18.9836 22.0001 19.1321 21.96 19.2734C21.9245 19.6439 21.8517 20.0103 21.6729 20.3613C21.3856 20.9251 20.927 21.385 20.3623 21.6729C19.9843 21.8655 19.5911 21.9374 19.1963 21.9697C18.8132 22.0011 18.3461 22 17.8037 22H6.19727C5.6548 22 5.187 22.0011 4.80372 21.9697C4.40889 21.9375 4.01581 21.8655 3.6377 21.6729C3.07225 21.3847 2.61418 20.9246 2.32715 20.3613C2.1461 20.006 2.0723 19.6386 2.03711 19.2686C2.00304 18.9101 2.00038 18.4849 2 18.001V6.2002C2 5.65664 1.99893 5.18845 2.03028 4.80469C2.06258 4.40941 2.13437 4.01605 2.32715 3.6377C2.61475 3.07334 3.07334 2.61475 3.6377 2.32715C4.01605 2.13437 4.40941 2.06258 4.80469 2.03028C5.18845 1.99893 5.65664 2 6.2002 2H17.7998L18.5576 2.00391C18.7905 2.00763 19.0035 2.0146 19.1953 2.03028C19.5906 2.06259 19.984 2.13441 20.3623 2.32715C20.926 2.61446 21.385 3.0729 21.6729 3.6377C21.8655 4.01581 21.9375 4.40889 21.9697 4.80372C22.0011 5.187 22 5.6548 22 6.19727V17.8027Z" fill="#151414"/>
</svg>
