<svg width="24" height="24" viewBox="0 0 24 24" fill="none" xmlns="http://www.w3.org/2000/svg">
<path d="M6.5644 7.44635C9.06122 4.94961 13.4685 3.69946 18.916 4.06256C19.4158 4.09588 19.8142 4.49341 19.8476 4.99322C20.2107 10.4408 18.9605 14.8488 16.4638 17.3458C15.1998 18.6098 13.6279 19.365 11.8554 19.4815C10.3063 19.5833 8.66561 19.1934 6.99995 18.3223L5.70698 19.6163C5.31645 20.0067 4.68339 20.0067 4.29292 19.6163C3.90253 19.2257 3.90252 18.5927 4.29292 18.2022L5.58589 16.9083C4.71563 15.2434 4.32698 13.6032 4.42866 12.0547C4.54515 10.2822 5.30038 8.7104 6.5644 7.44635ZM17.8955 6.01373C13.1966 5.85935 9.78888 7.05008 7.97846 8.86041C7.03281 9.80608 6.50624 10.9308 6.42378 12.1856C6.36063 13.1468 6.55615 14.2303 7.08296 15.4122L9.94917 12.545C10.3397 12.1544 10.9736 12.1545 11.3642 12.545C11.7546 12.9354 11.7544 13.5685 11.3642 13.959L8.49702 16.8262C9.67919 17.3534 10.7632 17.5495 11.7246 17.4864C12.9791 17.4039 14.1032 16.8771 15.0488 15.9317C16.8593 14.1212 18.0499 10.7131 17.8955 6.01373Z" fill="#151414"/>
</svg>
