<svg width="59" height="30" viewBox="0 0 59 30" fill="none" xmlns="http://www.w3.org/2000/svg">
<path d="M19.8618 21.98C20.3098 16.156 20.1818 10.332 19.5738 4.764C19.1898 1.596 20.9178 0.0919991 23.5098 0.0919991C25.7818 0.0919991 27.3818 1.372 27.6698 3.996C28.3418 10.908 28.3418 18.716 27.6698 25.66C27.3818 28.22 25.7818 29.5 23.5098 29.5C22.0058 29.5 20.7898 29.02 20.1178 28.028H16.5978C15.1898 28.028 14.2938 27.292 14.2938 24.988C14.2938 22.62 15.1898 21.884 16.5978 21.916L19.8618 21.98ZM0.24575 7.772C0.24575 3.452 2.35775 0.0919991 9.55775 0.0919991C16.7578 0.0919991 18.8058 3.452 18.8058 7.772C18.8058 12.092 16.4698 15.452 9.55775 15.452C2.64575 15.452 0.24575 12.092 0.24575 7.772ZM8.88575 9.116C8.88575 9.628 10.1658 9.628 10.1658 9.116V6.204C10.1658 5.66 8.88575 5.66 8.88575 6.204V9.116ZM5.39775 21.436C4.40575 21.404 3.54175 21.34 2.90175 21.276C1.20575 21.148 0.30975 20.124 0.30975 18.332C0.30975 16.7 1.20575 15.676 2.90175 15.868C5.71775 16.124 12.9818 16.124 15.9578 15.836C17.6538 15.676 18.7738 16.7 18.7738 18.332C18.7738 20.124 17.7818 21.116 16.1178 21.244C15.3818 21.34 14.3258 21.404 13.1738 21.436V26.428C13.1738 28.54 12.4058 28.892 9.26975 28.892C6.16575 28.892 5.39775 28.54 5.39775 26.428V21.436ZM49.468 15.036C49.98 11.484 49.98 7.164 49.5 3.868C49.18 1.244 50.844 0.0919991 53.436 0.0919991C55.676 0.0919991 57.244 1.084 57.532 3.228C58.108 6.844 58.108 11.836 57.532 15.42C57.244 17.532 55.676 18.556 53.436 18.556C50.844 18.556 49.18 17.404 49.468 15.036ZM35.356 14.204C35.58 12.476 38.396 11.068 40.988 10.204C41.756 9.948 41.5 8.988 40.7 9.372C39.036 10.14 37.596 10.428 35.932 10.556C32.188 10.844 31.26 10.268 31.292 8.572C31.324 7.036 32.636 6.652 35.804 6.652C36.764 6.652 39.484 6.652 40.988 6.78C42.044 6.844 42.076 5.596 40.988 5.596H34.332C31.964 5.596 30.428 5.532 30.428 3.228C30.428 1.692 32.124 1.372 34.332 0.859999C36.444 0.507999 40.572 0.507999 42.812 0.859999C45.468 1.372 47.228 2.972 47.868 5.436C48.444 7.356 48.476 11.324 47.9 13.372C46.812 17.436 42.076 18.364 39.068 17.852C36.028 17.308 35.164 15.804 35.356 14.204ZM31.676 24.54C31.676 20.604 35.548 18.684 44.924 18.684C54.3 18.684 58.172 20.604 58.172 24.54C58.172 28.54 54.972 29.468 44.924 29.468C34.876 29.468 31.676 28.54 31.676 24.54ZM42.62 24.732C44.092 25.5 45.788 25.468 47.26 24.732C47.484 24.604 47.676 24.252 47.548 23.932C47.452 23.676 47.132 23.484 46.876 23.612C45.692 24.252 44.092 24.252 42.94 23.58C42.748 23.484 42.428 23.548 42.236 23.9C42.076 24.188 42.204 24.508 42.62 24.732Z" fill="#FF8F36"/>
</svg>
