<svg width="24" height="24" viewBox="0 0 24 24" fill="none" xmlns="http://www.w3.org/2000/svg">
<path d="M18 9.92285C17.9999 8.35565 17.37 6.84981 16.2461 5.73828C15.1217 4.6265 13.5946 4 12 4C10.4052 4.00002 8.87829 4.62724 7.75391 5.73926C6.62985 6.85096 6 8.35559 6 9.92285C6 12.0582 6.93775 14.0704 8.16895 15.7822C9.3952 17.4871 10.8544 18.8128 11.7568 19.5518C11.826 19.6084 11.8772 19.6504 11.9219 19.6855C11.9577 19.7137 11.9827 19.731 12 19.7432C12.0172 19.7311 12.0422 19.7138 12.0781 19.6855C12.1227 19.6505 12.1738 19.6085 12.2432 19.5518C13.1456 18.8129 14.6049 17.488 15.8311 15.7832C17.0623 14.0714 18 12.0583 18 9.92285ZM13 9C13 8.44772 12.5523 8 12 8C11.4477 8 11 8.44772 11 9C11 9.55228 11.4477 10 12 10C12.5523 10 13 9.55228 13 9ZM20 9.92285C20 12.6392 18.8156 15.0595 17.4551 16.9512C16.0897 18.8496 14.487 20.2992 13.5107 21.0986C13.2831 21.2851 12.9825 21.5518 12.542 21.6758C12.2087 21.7696 11.7914 21.7696 11.458 21.6758C11.0174 21.5517 10.7146 21.2831 10.4893 21.0986C9.51295 20.2992 7.9104 18.8487 6.54492 16.9502C5.18441 15.0585 4 12.639 4 9.92285C4 7.81788 4.84522 5.80136 6.34668 4.31641C7.84776 2.83183 9.88182 2.00002 12 2C14.1182 2 16.1522 2.8318 17.6533 4.31641C19.1547 5.80132 19.9999 7.81817 20 9.92285ZM15 9C15 10.6569 13.6569 12 12 12C10.3431 12 9 10.6569 9 9C9 7.34315 10.3431 6 12 6C13.6569 6 15 7.34315 15 9Z" fill="#151414"/>
</svg>
