<svg width="24" height="24" viewBox="0 0 24 24" fill="none" xmlns="http://www.w3.org/2000/svg">
<path d="M8.66016 2.05958C8.91613 1.96706 9.20081 1.98225 9.44727 2.10548L15 4.88184L20.5527 2.10548C20.8626 1.95052 21.2306 1.96734 21.5254 2.14942C21.8202 2.33163 22 2.65343 22 3.00001V18C22 18.3788 21.786 18.7251 21.4473 18.8945L15.4473 21.8945C15.1657 22.0353 14.8343 22.0353 14.5527 21.8945L9 19.1182L3.44727 21.8945C3.13735 22.0495 2.76939 22.0327 2.47461 21.8506C2.17979 21.6684 2 21.3466 2 21V6.00001L2.00977 5.85938C2.05546 5.5372 2.25641 5.25364 2.55273 5.10548L8.55273 2.10548L8.66016 2.05958ZM4 6.61817V19.3818L8 17.3818V4.61817L4 6.61817ZM10 17.3818L14 19.3818V6.61817L10 4.61817V17.3818ZM16 6.61817V19.3818L20 17.3818V4.61817L16 6.61817Z" fill="#151414"/>
</svg>
