<svg width="24" height="24" viewBox="0 0 24 24" fill="none" xmlns="http://www.w3.org/2000/svg">
<path d="M19.2354 7.1416C19.7874 7.14179 20.2352 7.58956 20.2354 8.1416V10.5225C20.2349 14.936 16.9004 18.5828 12.6182 19.0801V21.9482C12.6179 22.5002 12.1702 22.9481 11.6182 22.9482C11.066 22.9482 10.6184 22.5003 10.6182 21.9482V19.0801C6.33551 18.5832 3.00044 14.9363 3 10.5225V8.1416C3.00015 7.58955 3.44796 7.14178 4 7.1416C4.55219 7.1416 4.99985 7.58944 5 8.1416V10.5225C5.00048 14.1697 7.96996 17.1393 11.6172 17.1396C15.2647 17.1396 18.2349 14.1699 18.2354 10.5225V8.1416C18.2355 7.58955 18.6833 7.14178 19.2354 7.1416ZM11.6172 1C14.2465 1 16.3788 3.13144 16.3789 5.76074V10.5215C16.3789 13.1509 14.2466 15.2832 11.6172 15.2832C8.988 15.283 6.85645 13.1507 6.85645 10.5215V5.76074C6.85655 3.13159 8.98806 1.00024 11.6172 1Z" fill="#151414"/>
</svg>
