<svg width="24" height="24" viewBox="0 0 24 24" fill="none" xmlns="http://www.w3.org/2000/svg">
<path d="M8 5.99999C8 5.67798 8.01605 5.35944 8.0459 5.04491C5.62921 6.42189 4.00005 9.02118 4 12C4 16.4182 7.58168 20 12 20C14.9793 20 17.5782 18.3702 18.9551 15.9531C18.6405 15.9829 18.322 16 18 16C12.4772 16 8 11.5228 8 5.99999ZM10 5.99999C10 10.4183 13.5817 14 18 14C18.8101 14 19.5902 13.8806 20.3242 13.6582C20.6771 13.5512 21.0604 13.6466 21.3213 13.9072C21.5821 14.1681 21.6783 14.5522 21.5713 14.9053C20.3268 19.0105 16.5138 22 12 22C6.47719 22 2 17.5229 2 12C2.00006 7.486 4.99037 3.673 9.0957 2.4287C9.4487 2.32177 9.83196 2.41789 10.0928 2.6787C10.3536 2.93954 10.4497 3.32278 10.3428 3.67577C10.1202 4.41014 10 5.1901 10 5.99999Z" fill="#151414"/>
</svg>
