<svg width="24" height="24" viewBox="0 0 24 24" fill="none" xmlns="http://www.w3.org/2000/svg">
<path d="M8.24319 1.63569C8.66143 1.54833 9.09489 1.55051 9.5137 1.64447C10.0233 1.7589 10.478 2.0471 11.0078 2.36518L11.3643 2.57807C11.4325 2.619 11.4387 2.62349 11.4483 2.62885C11.5871 2.70623 11.7425 2.74866 11.9024 2.75385C11.9145 2.75424 11.93 2.75483 12.001 2.75483C12.0724 2.75483 12.0873 2.75425 12.0996 2.75385C12.2593 2.74865 12.4144 2.70578 12.5528 2.62885C12.5638 2.62269 12.5776 2.61448 12.6367 2.57905L12.9912 2.36713L13.003 2.36127C13.5258 2.04809 13.976 1.76553 14.4805 1.65229C14.8959 1.55908 15.327 1.555 15.7451 1.64155C16.2546 1.74703 16.7129 2.0247 17.2461 2.33197L17.7393 2.61615C18.2749 2.92479 18.7457 3.18221 19.0928 3.57123C19.3773 3.89008 19.5903 4.26651 19.7178 4.67475C19.8727 5.17122 19.8521 5.70564 19.8418 6.31733L19.834 6.74311C19.833 6.80394 19.8328 6.82444 19.833 6.84076C19.8355 6.99971 19.8766 7.15663 19.9522 7.2978L20.0498 7.46772C20.1334 7.60219 20.2487 7.71567 20.3858 7.7978C20.3982 7.80526 20.4143 7.81479 20.4697 7.84565L20.834 8.0478C20.8353 8.04849 20.8366 8.04904 20.8379 8.04975C21.3738 8.34785 21.8463 8.59683 22.1983 8.97846C22.487 9.29157 22.7057 9.66328 22.8399 10.0673C23.0036 10.5604 22.9928 11.0951 22.9942 11.7099L22.9961 12.2841C22.9975 12.8948 23.0103 13.4303 22.8477 13.9247C22.7139 14.3314 22.4947 14.7052 22.2041 15.0205C21.8499 15.4047 21.3731 15.6552 20.8321 15.955L20.4707 16.1552L20.4688 16.1562L20.3867 16.2021C20.2495 16.2839 20.1333 16.398 20.0489 16.5341C20.0396 16.549 20.0289 16.5671 20 16.6171C19.9649 16.6779 19.9579 16.6904 19.9522 16.7011C19.8769 16.8416 19.8354 16.9988 19.833 17.1591C19.8328 17.1751 19.833 17.1953 19.834 17.2558L19.8418 17.6953C19.852 18.3008 19.8726 18.8329 19.7188 19.3271C19.5921 19.7341 19.3797 20.1091 19.0967 20.4277C18.7519 20.8157 18.2847 21.0739 17.7559 21.3808L17.2608 21.6679C16.7277 21.9773 16.2687 22.2574 15.7578 22.3642C15.3377 22.452 14.9042 22.448 14.4873 22.3544C14.1053 22.2687 13.7542 22.0863 13.3789 21.8662L12.6172 21.4091H12.6162C12.5689 21.3807 12.5599 21.375 12.5528 21.371C12.4139 21.2937 12.2576 21.2502 12.0977 21.2451C12.0853 21.2447 12.0706 21.2441 11.999 21.2441C11.928 21.2441 11.9138 21.2447 11.9014 21.2451C11.7427 21.2502 11.5877 21.2925 11.4483 21.3701C11.4366 21.3766 11.4225 21.386 11.3643 21.4208L11.0098 21.6318C10.482 21.9478 10.029 22.2336 9.52151 22.3476C9.10496 22.4411 8.67316 22.4447 8.25588 22.3583C7.74654 22.2529 7.28924 21.9753 6.75588 21.6679L6.26174 21.3837C5.72694 21.0756 5.25552 20.8179 4.90823 20.4287C4.62352 20.1096 4.41063 19.7332 4.28323 19.3251C4.12796 18.8277 4.14778 18.2918 4.15823 17.6728L4.16604 17.2656C4.16728 17.1923 4.16725 17.1757 4.16702 17.1621C4.16425 17.0036 4.12432 16.8492 4.05178 16.7119C4.04644 16.7018 4.04175 16.6949 4.00002 16.622C3.9622 16.5559 3.95522 16.5424 3.94827 16.5312C3.86457 16.396 3.74931 16.283 3.61331 16.2011C3.60309 16.195 3.59468 16.1901 3.52151 16.1494L3.16409 15.9501C2.62665 15.6512 2.15488 15.4023 1.80276 15.0205C1.51284 14.706 1.2948 14.3342 1.16116 13.9316C0.997811 13.4393 1.00729 12.908 1.00588 12.29L1.00393 11.7275C1.00252 11.1071 0.99015 10.5702 1.15334 10.0742C1.28715 9.66761 1.5064 9.29365 1.7969 8.97846C2.15107 8.59422 2.62751 8.34395 3.16897 8.04389L3.5303 7.84369C3.5982 7.80606 3.60586 7.80242 3.61526 7.79682C3.75225 7.71513 3.86769 7.60172 3.95217 7.46576C3.9578 7.4567 3.96051 7.45187 4.001 7.38178C4.0358 7.32153 4.04313 7.30944 4.04885 7.29877C4.12552 7.15578 4.1656 6.99803 4.16799 6.84076C4.16794 6.83843 4.16811 6.83523 4.16799 6.831C4.16752 6.81379 4.16669 6.78285 4.16604 6.74408L4.15823 6.31928C4.14785 5.70257 4.12786 5.16892 4.28225 4.6728C4.40879 4.26622 4.62095 3.89118 4.90432 3.57221C5.24459 3.18922 5.70441 2.93339 6.22463 2.63178L6.23049 2.62787L6.25002 2.61615L6.73831 2.33295L6.74026 2.33197C7.27373 2.02235 7.73225 1.74247 8.24319 1.63569ZM9.07522 3.59662C8.9369 3.5656 8.79303 3.56431 8.65237 3.59369C8.53232 3.61878 8.39688 3.68264 7.74416 4.06147C7.74329 4.06197 7.74211 4.06194 7.74123 4.06244L7.27346 4.33295L7.27444 4.33393L7.26858 4.33783C7.2621 4.34179 7.25561 4.34574 7.24905 4.34955C6.60207 4.72505 6.48014 4.80951 6.39944 4.90033C6.30534 5.00625 6.23476 5.13143 6.19241 5.26752C6.15595 5.38479 6.1456 5.5358 6.15823 6.28608L6.16604 6.71088C6.16647 6.7362 6.1664 6.75368 6.16702 6.77631C6.16756 6.79621 6.16857 6.83102 6.16799 6.87006C6.16085 7.35194 6.03687 7.82271 5.81155 8.24311C5.78741 8.28811 5.76156 8.33235 5.73245 8.38276C5.70863 8.424 5.67906 8.47488 5.65139 8.51947C5.39848 8.92697 5.05208 9.26865 4.63967 9.51459C4.59471 9.5414 4.54469 9.56894 4.50002 9.59369L4.1387 9.79389C3.47725 10.1604 3.35105 10.2434 3.2676 10.3339C3.17115 10.4386 3.09848 10.5634 3.05373 10.6992C3.01515 10.8164 3.00222 10.9685 3.00393 11.7236L3.00588 12.2851C3.00758 13.0333 3.02078 13.1848 3.05959 13.3017C3.10488 13.4381 3.17744 13.5619 3.27248 13.665C3.3555 13.755 3.47933 13.8379 4.13577 14.2031L4.49416 14.4023C4.54296 14.4294 4.59694 14.458 4.64553 14.4872C5.05402 14.7333 5.39763 15.0742 5.64846 15.4794C5.67757 15.5265 5.705 15.5741 5.73635 15.6288C5.76274 15.675 5.7941 15.7286 5.82034 15.7783C6.04103 16.1962 6.15804 16.6595 6.16604 17.1288C6.16695 17.1829 6.16615 17.2354 6.16506 17.2997L6.15823 17.707C6.14551 18.4601 6.15568 18.6118 6.19241 18.7294C6.23486 18.8654 6.30572 18.9904 6.40041 19.0966C6.48217 19.1882 6.60653 19.2733 7.26077 19.6503L7.75393 19.9355C8.40554 20.311 8.54122 20.3745 8.66116 20.3994C8.80075 20.4282 8.94472 20.4275 9.08303 20.3964C9.20252 20.3696 9.33655 20.3027 9.98245 19.916L10.3369 19.704C10.3904 19.672 10.4323 19.6466 10.4766 19.622C10.8935 19.3902 11.3594 19.2614 11.8369 19.246H11.8379C11.8894 19.2444 11.9403 19.2441 11.999 19.2441C12.0583 19.2441 12.1102 19.2444 12.1621 19.246C12.6399 19.2615 13.108 19.3907 13.5264 19.624C13.5681 19.6472 13.6083 19.6713 13.6465 19.6943L14.0225 19.9199C14.6707 20.309 14.8057 20.3763 14.9258 20.4033C15.0659 20.4346 15.21 20.4351 15.3487 20.4062C15.4686 20.3811 15.6044 20.3171 16.2569 19.9384L16.752 19.6503C17.3984 19.2751 17.5208 19.1903 17.6016 19.0996C17.696 18.9932 17.7674 18.868 17.8096 18.7324C17.8452 18.6176 17.8543 18.4701 17.8418 17.7285L17.834 17.289C17.8329 17.2211 17.8333 17.1769 17.834 17.1298C17.8411 16.6507 17.9626 16.1789 18.1895 15.7558C18.2135 15.711 18.2387 15.6671 18.2676 15.6171C18.3029 15.5561 18.3255 15.5183 18.3496 15.4794C18.6026 15.0719 18.9499 14.7302 19.3623 14.4843C19.4058 14.4584 19.4495 14.4346 19.499 14.4072L19.501 14.4062L19.8623 14.206C20.5241 13.8393 20.65 13.7554 20.7334 13.665C20.83 13.5602 20.9035 13.4357 20.9483 13.2997C20.986 13.1847 20.9978 13.0358 20.9961 12.288L20.9942 11.7138C20.9925 10.963 20.9799 10.8143 20.9414 10.6982C20.8967 10.5634 20.8238 10.4392 20.7276 10.3349C20.6448 10.2452 20.5209 10.1625 19.8653 9.7978V9.79682H19.8643L19.4981 9.59272C19.4406 9.56074 19.3998 9.53803 19.3574 9.51264C18.9486 9.26766 18.6029 8.92855 18.3506 8.5224C18.3225 8.47714 18.2908 8.42128 18.2686 8.38276C18.2393 8.33214 18.2138 8.28759 18.1895 8.24213C17.9637 7.82066 17.8413 7.35026 17.834 6.87104C17.8333 6.82333 17.8328 6.77808 17.834 6.70893L17.8418 6.28412C17.8544 5.53495 17.8448 5.38648 17.8086 5.27045C17.7662 5.13462 17.6946 5.00971 17.5996 4.90326C17.5177 4.81153 17.3941 4.72579 16.7412 4.34955L16.2471 4.0644C15.5951 3.68868 15.4598 3.6244 15.3399 3.59955C15.2013 3.57087 15.0573 3.57218 14.918 3.60346C14.7989 3.63021 14.6654 3.69643 14.0215 4.08197C14.0204 4.08264 14.0187 4.0823 14.0176 4.08295L13.6641 4.29487C13.6123 4.3259 13.5693 4.35197 13.5244 4.3769C13.1064 4.60933 12.6397 4.73758 12.1631 4.75287C12.1114 4.75453 12.06 4.75483 12.001 4.75483C11.9427 4.75483 11.8896 4.75454 11.8379 4.75287C11.3602 4.73744 10.893 4.60911 10.4746 4.37592C10.4281 4.34998 10.3788 4.31921 10.335 4.29291L9.97854 4.07905C9.33031 3.68989 9.19516 3.62353 9.07522 3.59662ZM15 11.9999C15 10.3431 13.6569 8.99994 12 8.99994C10.3433 9.00012 9.00002 10.3432 9.00002 11.9999C9.00004 13.6567 10.3433 14.9998 12 14.9999C13.6569 14.9999 15 13.6568 15 11.9999ZM17 11.9999C17 14.7614 14.7614 16.9999 12 16.9999C9.23876 16.9998 7.00004 14.7612 7.00002 11.9999C7.00002 9.23863 9.23875 7.00012 12 6.99994C14.7614 6.99994 17 9.23852 17 11.9999Z" fill="#151414"/>
</svg>
