<svg width="24" height="24" viewBox="0 0 24 24" fill="none" xmlns="http://www.w3.org/2000/svg">
<path d="M3 17.7998V13C3 12.5478 2.99961 12.1587 3.02149 11.8379C3.04399 11.5082 3.09361 11.1784 3.22852 10.8525C3.533 10.1175 4.11746 9.533 4.85254 9.22852C5.17839 9.09359 5.50815 9.04398 5.8379 9.02148C6.15868 8.9996 6.54786 9 7 9C7.55229 9 8 9.44772 8 10C8 10.5523 7.55229 11 7 11C6.52051 11 6.21058 11.0004 5.97364 11.0166C5.7459 11.0322 5.65878 11.0589 5.61719 11.0762C5.37243 11.1777 5.17766 11.3724 5.07618 11.6172C5.05893 11.6588 5.03216 11.7459 5.01661 11.9736C5.00044 12.2105 5 12.5204 5 13V17.7998C5 18.3764 5.00029 18.749 5.02344 19.0322C5.0456 19.3031 5.08417 19.4036 5.10938 19.4531C5.2057 19.6422 5.35861 19.7962 5.5459 19.8916C5.59521 19.9167 5.69595 19.9544 5.9668 19.9766C6.24974 19.9997 6.62182 20 7.19727 20H16.8037C17.3791 20 17.7505 19.9997 18.0332 19.9766C18.3042 19.9544 18.4048 19.9167 18.4541 19.8916C18.642 19.7959 18.7956 19.6416 18.8916 19.4531C18.9167 19.4037 18.9545 19.303 18.9766 19.0332C18.9997 18.7504 19 18.3782 19 17.8027V13C19 12.5204 18.9996 12.2105 18.9834 11.9736C18.9678 11.746 18.9411 11.6589 18.9238 11.6172C18.8222 11.372 18.6274 11.1775 18.3828 11.0762C18.3412 11.0589 18.2543 11.0322 18.0264 11.0166C17.7894 11.0004 17.4796 11 17 11C16.4477 11 16 10.5523 16 10C16 9.44772 16.4477 9 17 9C17.4521 9 17.8413 8.99961 18.1621 9.02148C18.4919 9.04399 18.8225 9.09351 19.1484 9.22852C19.8836 9.53317 20.4672 10.1179 20.7715 10.8525C20.9064 11.1783 20.956 11.5081 20.9785 11.8379C21.0004 12.1587 21 12.5478 21 13V17.8027C21 18.345 21.001 18.8122 20.9697 19.1953C20.9374 19.5902 20.8655 19.9832 20.6729 20.3613C20.3855 20.9253 19.9269 21.3851 19.3623 21.6729C18.9843 21.8655 18.5911 21.9374 18.1963 21.9697C17.8132 22.0011 17.3461 22 16.8037 22H7.19727C6.6548 22 6.187 22.001 5.80372 21.9697C5.40889 21.9374 5.01581 21.8655 4.6377 21.6729C4.07245 21.3848 3.61429 20.9249 3.32715 20.3613C3.13451 19.9832 3.0626 19.5904 3.03028 19.1953C2.99893 18.8117 3 18.3433 3 17.7998ZM11 13V5.41406L9.70704 6.70703C9.31651 7.09756 8.6835 7.09756 8.29297 6.70703C7.90245 6.31651 7.90245 5.68349 8.29297 5.29297L11.293 2.29297L11.3662 2.22656C11.5442 2.08073 11.7679 2 12 2C12.2652 2 12.5195 2.10543 12.707 2.29297L15.707 5.29297L15.7754 5.36914C16.0957 5.76191 16.0732 6.34092 15.707 6.70703C15.3409 7.07315 14.7619 7.09574 14.3691 6.77539L14.293 6.70703L13 5.41406V13C13 13.5523 12.5523 14 12 14C11.4477 14 11 13.5523 11 13Z" fill="#151414"/>
</svg>
