<svg width="24" height="24" viewBox="0 0 24 24" fill="none" xmlns="http://www.w3.org/2000/svg">
<path d="M20 18C20 16.8954 19.1046 16 18 16C16.8954 16 16 16.8954 16 18C16 19.1046 16.8954 20 18 20C19.1046 20 20 19.1046 20 18ZM8 12C8 10.8954 7.10457 10 6 10C4.89543 10 4 10.8954 4 12C4 13.1046 4.89543 14 6 14C7.10457 14 8 13.1046 8 12ZM20 6C20 4.89543 19.1046 4 18 4C16.8954 4 16 4.89543 16 6C16 7.10457 16.8954 8 18 8C19.1046 8 20 7.10457 20 6ZM22 6C22 8.20914 20.2091 10 18 10C16.796 10 15.7167 9.46766 14.9834 8.62598L9.91113 11.1621C9.96875 11.4324 10 11.7125 10 12C10 12.2871 9.96862 12.5669 9.91113 12.8369L14.9834 15.373C15.7167 14.5317 16.7963 14 18 14C20.2091 14 22 15.7909 22 18C22 20.2091 20.2091 22 18 22C15.7909 22 14 20.2091 14 18C14 17.7126 14.0303 17.4323 14.0879 17.1621L9.01562 14.626C8.28232 15.4674 7.20376 16 6 16C3.79086 16 2 14.2091 2 12C2 9.79086 3.79086 8 6 8C7.2035 8 8.28233 8.53196 9.01562 9.37305L14.0879 6.83691C14.0304 6.567 14 6.28705 14 6C14 3.79086 15.7909 2 18 2C20.2091 2 22 3.79086 22 6Z" fill="#151414"/>
</svg>
