<svg width="24" height="24" viewBox="0 0 24 24" fill="none" xmlns="http://www.w3.org/2000/svg">
<path d="M9 19C9 18.4477 8.55228 18 8 18C7.44772 18 7 18.4477 7 19C7 19.5523 7.44771 20 8 20C8.55229 20 9 19.5523 9 19ZM18 19C18 18.4477 17.5523 18 17 18C16.4477 18 16 18.4477 16 19C16 19.5523 16.4477 20 17 20C17.5523 20 18 19.5523 18 19ZM8.16602 13H17.4922C17.7205 13 17.8403 12.9993 17.9268 12.9932C17.9291 12.993 17.9314 12.9924 17.9336 12.9922C17.9346 12.9896 17.9365 12.9872 17.9375 12.9844C17.9675 12.9026 18.0018 12.7869 18.0654 12.5664L19.4502 7.7666C19.5553 7.4024 19.6149 7.19231 19.6445 7.03906C19.646 7.03151 19.6463 7.02423 19.6475 7.01758C19.6409 7.0169 19.6335 7.01532 19.626 7.01465C19.4702 7.00079 19.2521 7 18.873 7H6.87988L8.16602 13ZM20 19C20 20.6569 18.6569 22 17 22C15.3431 22 14 20.6569 14 19C14 18.649 14.0631 18.3131 14.1738 18H10.8262C10.9369 18.3131 11 18.649 11 19C11 20.6569 9.65685 22 8 22C6.34315 22 5 20.6569 5 19C5 17.7634 5.74804 16.7013 6.81641 16.2422C6.79545 16.15 6.77519 16.0547 6.75488 15.96L4.29395 4.47461C4.24277 4.23581 4.21483 4.10826 4.18848 4.01855C4.18746 4.01511 4.18551 4.01187 4.18457 4.00879C4.18154 4.00854 4.17818 4.00806 4.1748 4.00781L3.70605 4H3C2.44772 4 2 3.55228 2 3C2 2.44772 2.44772 2 3 2H3.70605L4.02637 2.00098C4.13027 2.00252 4.23022 2.0059 4.32227 2.0127C4.5193 2.02725 4.74741 2.06166 4.98438 2.16406C5.31783 2.30823 5.60786 2.54162 5.82031 2.83984C5.9696 3.04942 6.05065 3.26438 6.10645 3.4541C6.15868 3.63175 6.20363 3.84286 6.24902 4.05469L6.45117 5H18.873C19.2151 5 19.5383 4.99882 19.8037 5.02246C20.0757 5.04673 20.4097 5.10473 20.7256 5.30078C21.097 5.53141 21.3812 5.87653 21.5371 6.28125L21.5957 6.45801L21.627 6.59082C21.6867 6.898 21.6529 7.18411 21.6074 7.41895C21.5567 7.68085 21.467 7.99115 21.3721 8.32031L19.9873 13.1211C19.8923 13.4505 19.7828 13.8934 19.5107 14.2383C19.2966 14.5098 19.0147 14.722 18.6943 14.8525C18.3897 14.9767 18.0572 14.9973 17.7666 15H8.59473L8.71094 15.541L8.81348 15.9873C8.81377 15.9883 8.81417 15.9893 8.81445 15.9902C8.81775 15.9905 8.82149 15.9919 8.8252 15.9922C8.91904 15.9991 9.04913 16 9.29395 16H17C18.6569 16 20 17.3431 20 19Z" fill="#151414"/>
</svg>
