<svg width="24" height="24" viewBox="0 0 24 24" fill="none" xmlns="http://www.w3.org/2000/svg">
<path d="M6 20C6 18.8954 6.89543 18 8 18C9.10457 18 10 18.8954 10 20C10 21.1046 9.10457 22 8 22C6.89543 22 6 21.1046 6 20ZM16 20C16 18.8954 16.8954 18 18 18C19.1046 18 20 18.8954 20 20C20 21.1046 19.1046 22 18 22C16.8954 22 16 21.1046 16 20ZM3.26855 2C3.49052 2 3.7118 1.99955 3.90039 2.01367C4.05117 2.02496 4.22023 2.04772 4.39746 2.10352L4.57715 2.1709L4.70312 2.23145C4.94905 2.36146 5.16463 2.54175 5.33691 2.75977L5.41992 2.87207L5.51855 3.03613C5.60551 3.20001 5.65881 3.36181 5.69727 3.50781C5.74533 3.69041 5.78503 3.90841 5.8252 4.12598L5.98633 5H18.9883C19.3135 5 19.6235 4.99897 19.8789 5.02149C20.1425 5.04474 20.4624 5.10037 20.7695 5.28418C21.1826 5.53152 21.4967 5.92112 21.6465 6.38477C21.7566 6.72558 21.7377 7.04992 21.7012 7.31152C21.6656 7.56548 21.5955 7.86714 21.5225 8.1836V8.18457L19.9531 14.9844L19.9502 14.998L19.9492 15.001C19.9026 15.2029 19.8563 15.405 19.8037 15.5752C19.7462 15.7611 19.6627 15.972 19.5127 16.1777C19.3017 16.4671 19.0164 16.6974 18.6826 16.8398C18.448 16.9399 18.2226 16.9731 18.0283 16.9873C17.9374 16.994 17.8388 16.9975 17.7363 16.999L17.4219 17H7C6.51776 17 6.10417 16.6559 6.0166 16.1816L3.8584 4.48926C3.81285 4.24254 3.78727 4.11095 3.7627 4.01758C3.76188 4.01449 3.76053 4.01159 3.75977 4.00879C3.75699 4.00856 3.75402 4.00804 3.75098 4.00781C3.65425 4.00058 3.5201 4 3.26855 4H3C2.44772 4 2 3.55229 2 3C2 2.44772 2.44772 2 3 2H3.26855ZM7.83203 15H17.4219C17.6629 15 17.7907 14.9989 17.8828 14.9922C17.8852 14.992 17.8874 14.9914 17.8896 14.9912C17.8904 14.989 17.8918 14.9868 17.8926 14.9844C17.9197 14.8966 17.9488 14.7725 18.0029 14.5381L18.0039 14.5332L19.5732 7.73535V7.7334C19.6544 7.38184 19.7002 7.18144 19.7207 7.03516C19.7216 7.02844 19.7209 7.02158 19.7217 7.01563C19.7159 7.01504 19.7097 7.01425 19.7031 7.01367C19.5561 7.00071 19.3501 7 18.9883 7H6.35547L7.83203 15Z" fill="#151414"/>
</svg>
