<svg width="24" height="24" viewBox="0 0 24 24" fill="none" xmlns="http://www.w3.org/2000/svg">
<path d="M12.0001 3C14.419 3 16.4362 4.71781 16.8995 7H17.2227C17.8546 7 18.3932 6.99937 18.8292 7.03711C19.2742 7.07566 19.7188 7.16059 20.1319 7.39746C20.7405 7.74654 21.2071 8.29807 21.4512 8.95508C21.617 9.40134 21.6279 9.8539 21.5928 10.2988C21.5585 10.7344 21.47 11.2646 21.3663 11.8867C21.366 11.888 21.3655 11.8893 21.3653 11.8906L20.4317 17.4902C20.355 17.9504 20.2894 18.3504 20.209 18.6777C20.1258 19.0171 20.0114 19.3487 19.8038 19.6611C19.4902 20.1327 19.0493 20.5058 18.5333 20.7373C18.1911 20.8908 17.8455 20.9492 17.4971 20.9756C17.1612 21.001 16.7557 21 16.2891 21H7.71099C7.24445 21 6.83897 21.001 6.50298 20.9756C6.1546 20.9492 5.80901 20.8908 5.46685 20.7373C4.95051 20.5057 4.5098 20.1325 4.19634 19.6611C3.98887 19.349 3.8745 19.0172 3.79107 18.6777C3.71063 18.3504 3.64511 17.9504 3.56841 17.4902L2.63775 11.9062L2.63384 11.8877C2.53014 11.2655 2.44168 10.7354 2.40728 10.2998C2.37216 9.85463 2.38308 9.40148 2.54888 8.95508C2.79332 8.29734 3.26052 7.74612 3.86822 7.39746C4.2814 7.16046 4.72673 7.07568 5.17193 7.03711C5.60765 6.99939 6.14559 7 6.7774 7H7.10064C7.56395 4.71781 9.58114 3 12.0001 3ZM6.7774 9C6.10977 9 5.67312 9.00077 5.3438 9.0293C5.02471 9.05697 4.91348 9.10467 4.86431 9.13281C4.66103 9.24942 4.50511 9.43367 4.42388 9.65234C4.40427 9.70528 4.37525 9.82316 4.40044 10.1426C4.42645 10.4718 4.4979 10.9021 4.60748 11.5596V11.5615L5.54107 17.1621C5.62262 17.6514 5.67528 17.9645 5.73345 18.2012C5.78859 18.4254 5.83299 18.5095 5.86236 18.5537C5.96675 18.7107 6.11308 18.8349 6.28521 18.9121C6.33345 18.9338 6.42383 18.963 6.65435 18.9805C6.89744 18.9989 7.21446 19 7.71099 19H16.2891C16.7856 19 17.1028 18.9989 17.3458 18.9805C17.5761 18.963 17.6666 18.9338 17.7149 18.9121C17.8873 18.8347 18.0335 18.7105 18.1377 18.5537C18.167 18.5098 18.2115 18.4259 18.2667 18.2012C18.3248 17.9644 18.3774 17.6517 18.459 17.1621L19.3926 11.5615L19.3965 11.541C19.5045 10.8933 19.5739 10.4678 19.5997 10.1416C19.6248 9.8231 19.5968 9.70534 19.5772 9.65234C19.4957 9.43285 19.3393 9.24898 19.1368 9.13281C19.0878 9.10475 18.9764 9.05701 18.6563 9.0293C18.3267 9.00077 17.8902 9 17.2227 9H6.7774ZM12.0001 5C10.6942 5 9.586 5.83532 9.17388 7H14.8262C14.4141 5.83532 13.3059 5 12.0001 5Z" fill="#151414"/>
</svg>
