<svg width="24" height="24" viewBox="0 0 24 24" fill="none" xmlns="http://www.w3.org/2000/svg">
<path d="M12.0005 5C15.9563 5.00014 19.3097 7.71439 21.1177 9.51172C21.5653 9.95675 21.9832 10.349 22.2183 11.0693C22.3165 11.3705 22.3472 11.7149 22.3472 12C22.3472 12.2851 22.3165 12.6295 22.2183 12.9307C21.9832 13.651 21.5652 14.0434 21.1177 14.4883C19.3097 16.2856 15.9563 18.9999 12.0005 19C8.04436 19 4.68936 16.2857 2.88135 14.4883C2.43328 14.0428 2.01682 13.6511 1.78174 12.9307C1.6835 12.6295 1.65283 12.2851 1.65283 12C1.65283 11.7149 1.6835 11.3705 1.78174 11.0693C2.0168 10.349 2.4332 9.95724 2.88135 9.51172C4.68936 7.71428 8.04435 5 12.0005 5ZM12.0005 7C8.89531 7 6.04236 9.19005 4.2915 10.9307C3.80075 11.4186 3.74701 11.4945 3.68311 11.6904C3.68249 11.6925 3.68066 11.7014 3.67725 11.7178C3.67341 11.7362 3.6683 11.7602 3.66455 11.79C3.65693 11.8507 3.65283 11.9232 3.65283 12C3.65283 12.0768 3.65693 12.1493 3.66455 12.21C3.6683 12.2398 3.67341 12.2638 3.67725 12.2822C3.68065 12.2986 3.68248 12.3075 3.68311 12.3096C3.747 12.5054 3.80061 12.5813 4.2915 13.0693C6.04236 14.81 8.89532 17 12.0005 17C15.1055 16.9999 17.9567 14.8099 19.7075 13.0693C20.1985 12.5812 20.2531 12.5052 20.3169 12.3096C20.3175 12.3075 20.3194 12.2985 20.3228 12.2822C20.3266 12.2638 20.3307 12.2397 20.3345 12.21C20.3421 12.1493 20.3472 12.0768 20.3472 12C20.3472 11.9232 20.3421 11.8507 20.3345 11.79C20.3307 11.7603 20.3266 11.7362 20.3228 11.7178C20.3193 11.7014 20.3175 11.6925 20.3169 11.6904C20.2531 11.4948 20.1985 11.4188 19.7075 10.9307C17.9567 9.19005 15.1055 7.00014 12.0005 7ZM13.0005 12C13.0005 11.4479 12.5525 11.0003 12.0005 11C11.4482 11 11.0005 11.4477 11.0005 12C11.0005 12.5523 11.4482 13 12.0005 13C12.5525 12.9997 13.0005 12.5521 13.0005 12ZM15.0005 12C15.0005 13.6567 13.6571 14.9997 12.0005 15C10.3436 15 9.00049 13.6569 9.00049 12C9.00049 10.3431 10.3436 9 12.0005 9C13.6571 9.00026 15.0005 10.3433 15.0005 12Z" fill="#151414"/>
</svg>
