<svg width="24" height="24" viewBox="0 0 24 24" fill="none" xmlns="http://www.w3.org/2000/svg">
<path d="M17 11C17 10.4477 17.4477 10 18 10C18.5523 10 19 10.4477 19 11V16.5859L20.293 15.293C20.6835 14.9024 21.3165 14.9024 21.707 15.293C22.0976 15.6835 22.0976 16.3165 21.707 16.707L18.707 19.707C18.3165 20.0976 17.6835 20.0976 17.293 19.707L14.293 16.707L14.2246 16.6309C13.9043 16.2381 13.9269 15.6591 14.293 15.293C14.6591 14.9269 15.2381 14.9043 15.6309 15.2246L15.707 15.293L17 16.5859V11ZM10 16C10.5523 16 11 16.4477 11 17C11 17.5523 10.5523 18 10 18H4C3.44772 18 3 17.5523 3 17C3 16.4477 3.44772 16 4 16H10ZM13 11C13.5523 11 14 11.4477 14 12C14 12.5523 13.5523 13 13 13H4C3.44772 13 3 12.5523 3 12C3 11.4477 3.44772 11 4 11H13ZM16 6C16.5523 6 17 6.44772 17 7C17 7.55228 16.5523 8 16 8H4C3.44772 8 3 7.55228 3 7C3 6.44772 3.44772 6 4 6H16Z" fill="#151414"/>
</svg>
