<svg width="24" height="24" viewBox="0 0 24 24" fill="none" xmlns="http://www.w3.org/2000/svg">
<path d="M10.6387 2.56581C11.1578 1.44026 12.7245 1.40394 13.3096 2.45937L13.3633 2.56581L15.7773 7.80019L21.5039 8.47988C22.7768 8.63112 23.2826 10.2032 22.3447 11.0707L18.1113 14.9857L19.2363 20.641H19.2354C19.4844 21.8941 18.1512 22.8688 17.0322 22.2426L12.001 19.4262L6.96973 22.2416C5.85486 22.8657 4.51572 21.8988 4.76563 20.641L5.88868 14.9857L1.65625 11.0707C0.716506 10.2016 1.22696 8.63058 2.49805 8.47988L8.22364 7.80019L10.6387 2.56581ZM9.92286 8.89296C9.70358 9.36834 9.25323 9.69298 8.73731 9.75429L3.8086 10.3383L7.45313 13.7074H7.45215C7.83672 14.0631 8.00629 14.5917 7.90528 15.101L6.9375 19.9672L11.2686 17.5443L11.4434 17.4613C11.8003 17.318 12.1999 17.3166 12.5586 17.4603L12.7334 17.5443L17.0625 19.9682L16.0967 15.101C15.9952 14.5904 16.165 14.0624 16.5488 13.7074L20.1914 10.3383L15.2637 9.75429C14.7441 9.69254 14.2968 9.36498 14.0791 8.89296L12.001 4.3871L9.92286 8.89296Z" fill="#151414"/>
</svg>
