<svg width="24" height="24" viewBox="0 0 24 24" fill="none" xmlns="http://www.w3.org/2000/svg">
<path d="M11 22V20C11 19.4477 11.4477 19 12 19C12.5523 19 13 19.4477 13 20V22C13 22.5523 12.5523 23 12 23C11.4477 23 11 22.5523 11 22ZM5.70801 17.0205C6.09854 16.6304 6.73168 16.6302 7.12207 17.0205C7.51259 17.411 7.51259 18.045 7.12207 18.4355L5.70801 19.8496C5.31748 20.2401 4.68349 20.2401 4.29297 19.8496C3.90266 19.4592 3.90288 18.8261 4.29297 18.4355L5.70801 17.0205ZM19.8496 18.4355L19.918 18.5107C20.2385 18.9035 20.2158 19.4834 19.8496 19.8496C19.4834 20.2158 18.9035 20.2385 18.5107 19.918L18.4355 19.8496L17.0205 18.4355L17.7285 17.7285L18.4355 17.0205L19.8496 18.4355ZM17.0205 17.0205C17.411 16.63 18.045 16.63 18.4355 17.0205L17.0205 18.4355C16.63 18.045 16.63 17.411 17.0205 17.0205ZM16 12C16 9.79086 14.2091 8 12 8C9.79086 8 8 9.79086 8 12C8 14.2091 9.79086 16 12 16C14.2091 16 16 14.2091 16 12ZM4 11C4.55228 11 5 11.4477 5 12C5 12.5523 4.55228 13 4 13H2C1.44772 13 1 12.5523 1 12C1 11.4477 1.44772 11 2 11H4ZM22 11C22.5523 11 23 11.4477 23 12C23 12.5523 22.5523 13 22 13H20C19.4477 13 19 12.5523 19 12C19 11.4477 19.4477 11 20 11H22ZM4.29297 4.29297C4.65908 3.92685 5.23809 3.90426 5.63086 4.22461L5.70703 4.29297L7.12109 5.70703C7.51162 6.09756 7.51162 6.73057 7.12109 7.12109C6.73057 7.51162 6.09756 7.51162 5.70703 7.12109L4.29297 5.70703L4.22461 5.63086C3.90426 5.23809 3.92685 4.65908 4.29297 4.29297ZM18.4355 4.29297C18.826 3.90247 19.4591 3.90252 19.8496 4.29297C20.2401 4.68349 20.2401 5.31651 19.8496 5.70703L18.4355 7.12109C18.045 7.51162 17.412 7.51162 17.0215 7.12109C16.631 6.73056 16.631 6.09753 17.0215 5.70703L18.4355 4.29297ZM11 4V2C11 1.44772 11.4477 1 12 1C12.5523 1 13 1.44772 13 2V4C13 4.55228 12.5523 5 12 5C11.4477 5 11 4.55228 11 4ZM18 12C18 15.3137 15.3137 18 12 18C8.68629 18 6 15.3137 6 12C6 8.68629 8.68629 6 12 6C15.3137 6 18 8.68629 18 12Z" fill="#151414"/>
</svg>
