<svg width="24" height="24" viewBox="0 0 24 24" fill="none" xmlns="http://www.w3.org/2000/svg">
<path d="M5 17.7998V7H4C3.44772 7 3 6.55229 3 6C3 5.44772 3.44772 5 4 5H7.01562C7.0181 4.94421 7.01792 4.89008 7.02148 4.83789C7.04399 4.50816 7.0936 4.17835 7.22852 3.85254C7.53279 3.11795 8.11611 2.5332 8.85156 2.22852C9.17753 2.0935 9.50805 2.04398 9.83789 2.02148C10.1587 1.99962 10.5479 2 11 2H13C13.4521 2 13.8413 1.99961 14.1621 2.02148C14.4919 2.04399 14.8225 2.09351 15.1484 2.22852C15.8836 2.53317 16.4672 3.11788 16.7715 3.85254C16.9064 4.17827 16.956 4.50814 16.9785 4.83789C16.9821 4.89008 16.9819 4.94422 16.9844 5H20C20.5523 5 21 5.44772 21 6C21 6.55229 20.5523 7 20 7H19V17.8027C19 18.345 19.001 18.8122 18.9697 19.1953C18.9374 19.5902 18.8655 19.9832 18.6729 20.3613C18.3851 20.926 17.9256 21.3853 17.3613 21.6729C16.9833 21.8655 16.5902 21.9374 16.1953 21.9697C15.8123 22.001 15.345 22 14.8027 22H9.19727C8.6548 22 8.187 22.001 7.80371 21.9697C7.40888 21.9374 7.01581 21.8655 6.6377 21.6729C6.07245 21.3848 5.61428 20.9249 5.32715 20.3613C5.1345 19.9832 5.06259 19.5904 5.03027 19.1953C4.99892 18.8117 5 18.3433 5 17.7998ZM9 17V10C9 9.44772 9.44772 9 10 9C10.5523 9 11 9.44772 11 10V17C11 17.5523 10.5523 18 10 18C9.44772 18 9 17.5523 9 17ZM13 17V10C13 9.44772 13.4477 9 14 9C14.5523 9 15 9.44772 15 10V17C15 17.5523 14.5523 18 14 18C13.4477 18 13 17.5523 13 17ZM11 4C10.5204 4 10.2107 4.00043 9.97363 4.0166C9.74569 4.03215 9.6588 4.05895 9.61719 4.07617C9.37271 4.17744 9.17789 4.37187 9.07617 4.61719C9.05893 4.65882 9.03216 4.74592 9.0166 4.97363C9.01602 4.98223 9.01617 4.99121 9.01562 5H14.9844C14.9838 4.99124 14.984 4.9822 14.9834 4.97363C14.9678 4.74602 14.9411 4.65888 14.9238 4.61719C14.8222 4.37204 14.6274 4.17752 14.3828 4.07617C14.3412 4.05894 14.2543 4.03216 14.0264 4.0166C13.7894 4.00043 13.4796 4 13 4H11ZM7 17.7998C7 18.3764 7.00029 18.749 7.02344 19.0322C7.04559 19.3031 7.08416 19.4036 7.10938 19.4531C7.20569 19.6422 7.35861 19.7962 7.5459 19.8916C7.5952 19.9167 7.69594 19.9544 7.9668 19.9766C8.24974 19.9997 8.62182 20 9.19727 20H14.8027C15.3779 20 15.7496 19.9996 16.0322 19.9766C16.3025 19.9545 16.4037 19.9167 16.4531 19.8916C16.6415 19.7956 16.7958 19.6411 16.8916 19.4531C16.9167 19.4037 16.9545 19.303 16.9766 19.0332C16.9997 18.7504 17 18.3782 17 17.8027V7H7V17.7998Z" fill="#151414"/>
</svg>
