<svg width="24" height="24" viewBox="0 0 24 24" fill="none" xmlns="http://www.w3.org/2000/svg">
<path d="M11 7.52544C11 6.81141 10.9988 6.34126 10.9707 6.0108C10.9684 5.98335 10.9634 5.95852 10.9609 5.9356C10.9447 5.95175 10.9261 5.96862 10.9072 5.98833C10.6777 6.22771 10.3824 6.59312 9.93358 7.14849L8.2578 9.22173C8.11614 9.39705 7.93411 9.63522 7.69042 9.8106C7.49707 9.94971 7.28049 10.0533 7.05077 10.1163C6.76098 10.1956 6.46079 10.1876 6.23534 10.1876H4.81249C3.97782 10.1876 3.80079 10.1997 3.68651 10.2374C3.38599 10.3366 3.15018 10.5726 3.05077 10.8731C3.01302 10.9874 2.99999 11.1647 2.99999 12.0001C2.99999 12.835 3.01302 13.0118 3.05077 13.126C3.15015 13.4266 3.38594 13.6625 3.68651 13.7618C3.80079 13.7995 3.97769 13.8126 4.81249 13.8126H6.23534C6.46077 13.8126 6.76099 13.8035 7.05077 13.8829C7.28047 13.9458 7.4971 14.0495 7.69042 14.1885C7.93429 14.364 8.1161 14.603 8.2578 14.7784L9.93358 16.8506C10.3823 17.4059 10.6777 17.7714 10.9072 18.0108C10.9259 18.0303 10.9448 18.0465 10.9609 18.0626C10.9634 18.0399 10.9684 18.0154 10.9707 17.9883C10.9988 17.6579 11 17.1877 11 16.4737V7.52544ZM21.1211 8.46392C21.5115 8.07349 22.1446 8.07369 22.5351 8.46392C22.9257 8.85444 22.9257 9.48746 22.5351 9.87798L20.4131 11.9991L22.5351 14.1211L22.6045 14.1973C22.9245 14.5901 22.9011 15.1692 22.5351 15.5352C22.169 15.9012 21.59 15.924 21.1973 15.6036L21.1211 15.5352L19 13.4131L16.8789 15.5352C16.4884 15.9257 15.8554 15.9255 15.4648 15.5352C15.0743 15.1447 15.0743 14.5117 15.4648 14.1211L17.5859 11.9991L15.4648 9.87798L15.3955 9.80279C15.0751 9.41001 15.0987 8.83006 15.4648 8.46392C15.831 8.09807 16.41 8.07525 16.8027 8.39556L16.8789 8.46392L19 10.585L21.1211 8.46392ZM13 16.4737C13 17.1489 13.0009 17.7215 12.9639 18.1573C12.9312 18.5409 12.8567 19.1023 12.4785 19.5176C12.0274 20.013 11.3585 20.2493 10.6963 20.1475C10.1411 20.0621 9.73031 19.6724 9.46385 19.3946C9.16123 19.079 8.80221 18.6335 8.37792 18.1085L6.70214 16.0352C6.60778 15.9184 6.56009 15.8593 6.52342 15.8184C6.52247 15.8173 6.52138 15.8165 6.52049 15.8155C6.51925 15.8154 6.51794 15.8156 6.51659 15.8155C6.46173 15.8127 6.38553 15.8126 6.23534 15.8126H4.81249C4.13539 15.8126 3.55543 15.8253 3.05858 15.6612C2.15668 15.3632 1.44931 14.6549 1.15135 13.753C0.987321 13.2563 0.999982 12.6769 0.999987 12.0001C0.999987 11.323 0.987233 10.743 1.15135 10.2461C1.44928 9.3443 2.15679 8.63698 3.05858 8.33892C3.4311 8.21586 3.85049 8.19168 4.32225 8.18755H6.23534C6.38553 8.18755 6.46173 8.18647 6.51659 8.18365C6.51796 8.18358 6.51923 8.18274 6.52049 8.18267C6.52123 8.18185 6.52264 8.18159 6.52342 8.18072C6.5601 8.13982 6.60774 8.08074 6.70214 7.96392L8.37792 5.89068C8.80221 5.36561 9.16123 4.92014 9.46385 4.60455C9.73031 4.32669 10.1411 3.93698 10.6963 3.85162C11.3171 3.75623 11.944 3.95792 12.3916 4.39165L12.4785 4.4815L12.6064 4.64361C12.8746 5.03454 12.9353 5.50614 12.9639 5.84185C13.0009 6.27764 13 6.85011 13 7.52544V16.4737Z" fill="#151414"/>
</svg>
