<svg width="24" height="24" viewBox="0 0 24 24" fill="none" xmlns="http://www.w3.org/2000/svg">
<path d="M19.5576 19.992C19.1564 20.3713 18.524 20.354 18.1445 19.953C17.7651 19.5517 17.7823 18.9184 18.1836 18.5389L19.5576 19.992ZM11 7.52525C11 6.81152 10.9988 6.34198 10.9707 6.01157C10.9684 5.9842 10.9634 5.95926 10.9609 5.93638C10.9447 5.95247 10.926 5.9695 10.9072 5.98911C10.6777 6.22846 10.3821 6.59325 9.93358 7.14829L8.2578 9.22154C8.11612 9.39688 7.93423 9.63493 7.69042 9.8104C7.49706 9.94956 7.28053 10.0531 7.05077 10.1161C6.76098 10.1954 6.46079 10.1874 6.23534 10.1874H4.81249C3.97745 10.1874 3.80078 10.2004 3.68651 10.2381C3.38585 10.3375 3.15009 10.5732 3.05077 10.8739C3.01303 10.9881 2.99999 11.1647 2.99999 11.9999C2.99999 12.8348 3.01306 13.0116 3.05077 13.1258C3.15009 13.4265 3.38585 13.6622 3.68651 13.7616C3.80078 13.7993 3.97736 13.8124 4.81249 13.8124H6.23534C6.46079 13.8124 6.76098 13.8043 7.05077 13.8836C7.22302 13.9308 7.38778 14.0009 7.541 14.0917L7.69042 14.1893L7.86229 14.3309C8.0228 14.4801 8.1516 14.6467 8.2578 14.7782L9.93358 16.8514C10.3821 17.4065 10.6777 17.7712 10.9072 18.0106C10.9258 18.03 10.9449 18.0464 10.9609 18.0624C10.9634 18.0398 10.9684 18.0151 10.9707 17.9881C10.9988 17.6577 11 17.1882 11 16.4745V7.52525ZM19.5019 3.95493C20.601 4.97978 21.4785 6.2195 22.0801 7.59654C22.6816 8.97345 22.9947 10.4592 23 11.9618C23.0052 13.4643 22.7022 14.9518 22.1103 16.3329C21.5184 17.7141 20.6494 18.9595 19.5576 19.992L18.1836 18.5389C19.0768 17.6942 19.7881 16.6757 20.2724 15.5458C20.7568 14.4157 21.0043 13.1981 21 11.9686C20.9957 10.7391 20.7393 9.523 20.2471 8.39634C19.7548 7.26985 19.0368 6.25623 18.1377 5.41782L19.5019 3.95493ZM15.3603 6.92954C15.7134 6.55097 16.2916 6.50813 16.6953 6.81431L16.7744 6.88071L17.0293 7.13169C17.6098 7.73138 18.0791 8.43057 18.414 9.19712C18.7969 10.0734 18.9966 11.0192 19 11.9754C19.0033 12.9317 18.8103 13.8787 18.4336 14.7577C18.0569 15.6365 17.5043 16.4288 16.8096 17.0858C16.4083 17.4653 15.775 17.448 15.3955 17.0467C15.0161 16.6455 15.0343 16.0121 15.4355 15.6327L15.6172 15.452C16.0287 15.0208 16.3603 14.5188 16.5957 13.9696C16.8648 13.3418 17.0024 12.6653 17 11.9823C16.9976 11.2993 16.8555 10.6238 16.582 9.9979C16.3428 9.45032 16.0074 8.9507 15.5928 8.52232L15.4101 8.34361L15.3389 8.26939C15.0051 7.88803 15.0073 7.30819 15.3603 6.92954ZM18.0889 4.00474C18.4655 3.60084 19.098 3.57834 19.5019 3.95493L18.1377 5.41782C17.7339 5.04118 17.7123 4.40862 18.0889 4.00474ZM13 16.4745C13 17.1498 13.0009 17.7223 12.9639 18.1581C12.9312 18.5416 12.8566 19.1022 12.4785 19.5174C12.0274 20.0129 11.3585 20.25 10.6963 20.1483C10.1411 20.0629 9.73031 19.6732 9.46385 19.3954C9.16113 19.0797 8.80243 18.6336 8.37792 18.1083L6.70214 16.035C6.60793 15.9184 6.56006 15.86 6.52343 15.8192C6.52213 15.8177 6.52069 15.8166 6.51952 15.8153C6.51857 15.8152 6.51759 15.8153 6.51659 15.8153C6.46173 15.8125 6.38553 15.8124 6.23534 15.8124H4.81249C4.1354 15.8124 3.55543 15.8251 3.05858 15.661C2.15683 15.363 1.44935 14.6555 1.15135 13.7538C0.987217 13.2569 0.999987 12.6769 0.999987 11.9999C0.999987 11.3228 0.987221 10.7428 1.15135 10.2459C1.44937 9.34423 2.15685 8.63672 3.05858 8.33872C3.55543 8.17458 4.1354 8.18736 4.81249 8.18736H6.23534C6.38553 8.18736 6.46173 8.18725 6.51659 8.18443C6.51761 8.18437 6.51856 8.1835 6.51952 8.18345C6.52052 8.18234 6.52233 8.18174 6.52343 8.18052C6.56006 8.13966 6.60794 8.08127 6.70214 7.9647L8.37792 5.89146C8.8024 5.36616 9.16114 4.92001 9.46385 4.60435C9.73031 4.3265 10.1411 3.93678 10.6963 3.85142C11.3585 3.74968 12.0274 3.98685 12.4785 4.48228C12.8566 4.89751 12.9312 5.45808 12.9639 5.84165C13.0009 6.27739 13 6.84998 13 7.52525V16.4745Z" fill="#151414"/>
</svg>
