<svg width="24" height="24" viewBox="0 0 24 24" fill="none" xmlns="http://www.w3.org/2000/svg">
<path d="M5.29296 4.29295C5.68348 3.90243 6.31649 3.90243 6.70702 4.29295L20.707 18.293L20.7754 18.3681C21.0961 18.7609 21.0733 19.3408 20.707 19.707C20.3409 20.073 19.7619 20.0956 19.3691 19.7754L19.293 19.707L16.9951 17.4092C16.9907 17.6896 16.9823 17.9403 16.9639 18.1572C16.9312 18.5408 16.8567 19.1022 16.4785 19.5176C16.0274 20.0129 15.3585 20.2501 14.6963 20.1484C14.1411 20.0631 13.7303 19.6724 13.4639 19.3945C13.1612 19.0789 12.8022 18.6334 12.3779 18.1084L10.7021 16.0351C10.6078 15.9184 10.5601 15.8592 10.5234 15.8183C10.5225 15.8173 10.5214 15.8164 10.5205 15.8154C10.5192 15.8153 10.5179 15.8155 10.5166 15.8154C10.4617 15.8126 10.3855 15.8125 10.2353 15.8125H8.81249C8.1354 15.8125 7.55543 15.8253 7.05858 15.6611C6.1567 15.3631 5.44931 14.6548 5.15135 13.7529C4.98736 13.2562 4.99998 12.6768 4.99999 12C4.99999 11.3229 4.98722 10.7429 5.15135 10.2461C5.44931 9.34425 6.1568 8.6369 7.05858 8.33885C7.28551 8.26389 7.5301 8.22626 7.79296 8.20702L5.29296 5.70702L5.2246 5.63084C4.90415 5.23811 4.92691 4.65912 5.29296 4.29295ZM15 10.5V6.97752C15 6.49636 14.9995 6.17994 14.9863 5.95409C14.9848 5.92865 14.9801 5.90611 14.9785 5.88573C14.9646 5.90036 14.9485 5.91604 14.9316 5.93456C14.7794 6.10194 14.5798 6.34742 14.2773 6.72166L13.6523 7.4951C13.3052 7.92465 12.6756 7.99163 12.2461 7.64452C11.8168 7.29734 11.7506 6.66772 12.0976 6.23827L12.7226 5.46483C13.0086 5.11096 13.2511 4.80987 13.4521 4.58885C13.6287 4.39474 13.892 4.12194 14.2373 3.97948C15.1805 3.59056 16.2656 3.97386 16.7549 4.86913C16.9342 5.19725 16.9681 5.57583 16.9834 5.83788C17.0008 6.13616 17 6.5225 17 6.97752V10.5C16.9999 11.0522 16.5522 11.5 16 11.5C15.4478 11.5 15.0001 11.0522 15 10.5ZM6.99999 12C6.99999 12.8351 7.01302 13.0117 7.05077 13.126C7.15012 13.4266 7.38589 13.6624 7.68651 13.7617C7.80078 13.7994 7.97759 13.8125 8.81249 13.8125H10.2353C10.4608 13.8125 10.761 13.8034 11.0508 13.8828C11.2804 13.9457 11.4971 14.0494 11.6904 14.1885C11.9343 14.364 12.1161 14.603 12.2578 14.7783L13.9336 16.8515C14.3821 17.4066 14.6777 17.7714 14.9072 18.0107C14.9259 18.0302 14.9449 18.0465 14.9609 18.0625C14.9634 18.0398 14.9684 18.0153 14.9707 17.9883C14.9988 17.6578 15 17.1877 15 16.4736V15.414L9.77343 10.1875H8.81249C7.97793 10.1875 7.80079 10.1996 7.68651 10.2373C7.38585 10.3366 7.15009 10.5733 7.05077 10.874C7.0131 10.9883 6.99999 11.1655 6.99999 12Z" fill="#151414"/>
</svg>
