<svg width="24" height="24" viewBox="0 0 24 24" fill="none" xmlns="http://www.w3.org/2000/svg">
<path d="M11 14V6C11 5.44772 11.4477 5 12 5C12.5523 5 13 5.44772 13 6V14C13 14.5523 12.5523 15 12 15C11.4477 15 11 14.5523 11 14ZM13.0498 18.0996C13.0498 18.6511 12.6033 19.0985 12.0518 19.0996L11.9521 19.1006C11.6866 19.1011 11.4321 18.9952 11.2441 18.8076C11.0563 18.6201 10.9503 18.366 10.9502 18.1006V18C10.9502 17.4477 11.3979 17 11.9502 17H12.0498L12.1523 17.0049C12.6565 17.0562 13.0498 17.4823 13.0498 18V18.0996Z" fill="#151414"/>
</svg>
