<svg width="24" height="24" viewBox="0 0 24 24" fill="none" xmlns="http://www.w3.org/2000/svg">
<path d="M20 9H17V12C17 13.1046 16.1046 14 15 14H9V16H17.0273C17.4939 16 17.9464 16.1635 18.3057 16.4619L20 17.8691V9ZM4 5V13.8691L5.69434 12.4619C6.05391 12.1632 6.50651 12 6.97266 12H15V5H4ZM17 7H20C21.1046 7 22 7.89543 22 9V20C22 20.3877 21.7758 20.7405 21.4248 20.9053C21.0739 21.0699 20.6595 21.017 20.3613 20.7695L17.0283 18H9C7.89543 18 7 17.1046 7 16V14H6.97168L3.63867 16.7695C3.34046 17.0171 2.92611 17.0699 2.5752 16.9053C2.22423 16.7405 2 16.3877 2 16V5C2 3.89543 2.89543 3 4 3H15C16.1046 3 17 3.89543 17 5V7Z" fill="#151414"/>
</svg>
